<svg width="100" height="100" viewBox="0 0 100 100" fill="none" xmlns="http://www.w3.org/2000/svg">
<g opacity="0.5">
<path d="M15.9562 7C27.5205 13.6342 36.8216 14.9668 42.759 21.9991C46.7153 19.4031 54.6167 19.4031 58.2852 21.9991C63.2857 12.0882 75.7417 11.794 84.8114 7C88.2485 15.9476 93.3393 31.5986 83.9648 39.5942L98.6389 58.3432C91.4599 66.5927 60.9435 76.8036 58.9681 81.1303C47.9626 85.1685 43.1653 81.7072 40.9078 79.6881C25.4266 72.9096 12.5643 71.6866 1 58.6316L17.3672 39.8827C9.86087 32.5274 10.3293 22.3395 15.9562 7Z" fill="#E0E0E0"/>
<path d="M17.2994 11.5237C28.6601 15.8658 35.1925 17.8921 40.5889 24.2606C46.8373 21.6553 53.3697 21.6553 59.6181 24.2606C64.1624 15.2869 74.9551 15.8658 83.1916 11.5237C86.3158 19.629 89.156 32.0764 80.6355 39.3133L95.1204 58.1292C88.5994 65.5976 59.7658 75.2082 56.3576 79.2608C49.5412 81.2872 46.985 79.9394 42.7247 78.3924C41.0206 74.9187 15.0272 69.6618 4.51855 57.8397L19.8555 39.3133C13.0391 32.6554 12.1871 25.4185 17.2994 11.5237Z" fill="#253C4B"/>
<path fill-rule="evenodd" clip-rule="evenodd" d="M68.5554 26.0001C71.8083 22.868 74.5416 21.6934 79.003 19.6667C79.4378 25.0961 79.6936 27.9001 76.9999 32.3334C75.1588 28.5852 72.5085 27.1516 68.5554 26.0001Z" fill="white"/>
<path fill-rule="evenodd" clip-rule="evenodd" d="M24.9891 32.3334C27.1096 29.7458 28.6226 28.1474 32.6666 26.9048C27.987 22.3448 25.6753 21.5969 22.1768 19.6667C21.845 27.2728 22.7674 29.8906 24.9891 32.3334Z" fill="white"/>
<path fill-rule="evenodd" clip-rule="evenodd" d="M46.6918 68.9958C45.0589 68.9958 43.4261 67.3436 43.4261 65.4161C43.4261 63.4885 44.7868 61.2856 47.5082 61.2856C50.2295 61.2856 52.1345 62.6625 52.1345 65.4161C52.1345 67.619 50.7738 68.9958 48.8689 68.9958C48.7981 69.4914 48.613 70.0367 48.6076 70.3726C48.5804 71.2813 48.8689 71.4741 48.8689 71.4741C48.8689 71.4741 49.424 72.0248 50.5126 72.0248C50.9806 72.0248 51.6936 71.4465 52.1345 71.1987C52.7114 70.8683 53.2339 70.9233 53.7782 70.9233C53.7782 71.7494 51.329 73.6769 50.7847 73.6769C49.9683 73.6769 49.4948 73.0381 48.0525 73.1262C46.6918 73.4401 45.8754 73.9523 45.0589 73.9523C44.248 73.9523 43.105 71.9697 42.343 70.9233C43.0342 70.7801 43.2302 70.6865 43.9813 70.9233C44.716 71.1546 44.6507 71.9972 45.342 72.0248C45.8862 72.0248 46.387 71.8981 46.6918 71.4741C47.0891 70.9123 46.8496 69.4914 46.6918 68.9958Z" fill="white"/>
<path fill-rule="evenodd" clip-rule="evenodd" d="M22.1111 47.5657C30.2831 41.0147 30.2831 41.0147 37.6147 35.9526L50.0278 47.2679L62.7171 36.5482C69.7668 41.0147 71.4587 41.6103 81.0463 48.459C76.8165 48.1612 75.1246 47.5657 71.7407 47.2679L64.1271 42.5036C60.5177 44.4689 58.6283 46.0232 55.6675 49.9478C54.5395 53.2233 53.7778 57.6668 55.8889 59.7779C50.5198 57.4553 43.2544 58.8809 41.8445 59.4764C45.234 56.4987 45.234 53.8188 45.798 49.9478C42.3916 46.2316 39.3461 44.2664 35.9228 42.2058C31.9581 43.8852 31.4054 45.7731 28.3091 48.459C24.9253 47.8634 24.9253 47.8634 22.1111 47.5657Z" fill="white"/>
<path d="M50.2595 64.0002C50.7453 64.0002 51.1391 63.7977 51.1391 63.5478C51.1391 63.298 50.7453 63.0955 50.2595 63.0955C49.7737 63.0955 49.3799 63.298 49.3799 63.5478C49.3799 63.7977 49.7737 64.0002 50.2595 64.0002Z" fill="white"/>
<path d="M62.5742 51.3334C63.5458 51.3334 64.3335 50.7258 64.3335 49.9763C64.3335 49.2268 63.5458 48.6191 62.5742 48.6191C61.6026 48.6191 60.8149 49.2268 60.8149 49.9763C60.8149 50.7258 61.6026 51.3334 62.5742 51.3334Z" fill="white"/>
<path d="M37.0647 51.3334C38.0363 51.3334 38.8239 50.7258 38.8239 49.9763C38.8239 49.2268 38.0363 48.6191 37.0647 48.6191C36.0931 48.6191 35.3054 49.2268 35.3054 49.9763C35.3054 50.7258 36.0931 51.3334 37.0647 51.3334Z" fill="white"/>
<path d="M52.7857 80.1737C50.3764 79.6737 47.9669 79.6737 46.3602 80.1737C40.741 76.0379 35.8959 75.5 28.6673 75C24.6516 75 25.1954 80 25.9983 85C26.6912 90.9727 24.6517 94 28.6673 94C35.093 94 41.4783 91 46.3602 88.1737C47.9669 88.6737 50.3764 88.6737 52.7857 88.1737C56.9584 91 63.08 93.5 68.7019 93.5C73.5213 93.5 71.6357 90 72.4385 85.5C73.0227 82.2258 76.1902 77 71.3709 76C66.4139 74.9714 57.9258 75.8386 52.7857 80.1737Z" fill="#E0E0E0"/>
<path d="M53.465 81.5C51.2021 81.0469 47.7454 81.0469 46.2364 81.5C40.9586 77.7522 36.5242 76.9531 29.7348 76.5C25.9631 76.5 26.8456 79.469 27.5997 84C28.2505 89.4124 26.497 92.5 30.2686 92.5C36.3039 92.5 40.4107 89.5 46.2364 87C47.7454 87.4531 51.2021 87.4531 53.465 87C57.4922 89.5 62.8877 92 68.1681 92C72.6947 92 70.083 89.0779 70.8371 85C71.3858 82.0329 74.8299 78.4062 70.3033 77.5C65.6475 76.5679 58.2928 77.5716 53.465 81.5Z" fill="#253C4B"/>
<path d="M46.2364 81.4999C45.232 83.6665 45.1863 84.8704 46.2364 86.9999C45.9655 86.8313 45.6946 86.3783 45.5162 85.7752C38.2045 85.2942 36.757 85.1411 30.3316 87.6411C35.3996 85.4164 37.8774 84.9622 45.3811 85.1837C45.3197 84.814 45.2938 84.4122 45.318 83.9999C38.1229 82.7947 36.5555 82.3234 29.2012 81.9999C36.5632 82.2221 38.142 82.6037 45.3581 83.594C45.398 83.309 45.4637 83.0222 45.5596 82.7405C39.169 80.4108 37.9692 79.4005 31.1348 78.6411C37.9903 79.2108 39.2313 80.0482 45.7104 82.3587C45.8455 82.0599 46.0189 81.7707 46.2364 81.4999Z" fill="#D9D9D9"/>
<path d="M53.4651 86.9999C55.8746 83.4999 53.4651 81.9999 53.4651 81.4999C53.7905 81.8535 54.065 82.1816 54.2871 82.4927C59.0204 80.6949 61.6451 80.0425 66.3159 79.4999C61.3978 80.3582 58.837 81.076 54.5045 82.8193C54.6767 83.0995 54.8027 83.3677 54.8813 83.6308C60.0188 83.1793 62.8632 83.251 67.9222 83.4999C62.7803 83.4283 59.923 83.4715 54.9606 83.9999C55.016 84.428 54.9411 84.8514 54.7305 85.3015C58.8819 86.0975 65.0397 87.7312 68.7254 88.9999C64.8983 87.915 58.6856 86.3627 54.5828 85.5837C54.3324 86.0178 53.9613 86.4812 53.4651 86.9999Z" fill="#D9D9D9"/>
</g>
</svg>
