<svg width="100" height="100" viewBox="0 0 100 100" fill="none" xmlns="http://www.w3.org/2000/svg">
<g opacity="0.5">
<path d="M15.5 12C27.8251 19.0707 35.1095 21.4426 41.4375 28.9375C45.6541 26.1707 54.4026 26.1707 58.3125 28.9375C63.6419 18.3745 73.8336 18.6093 83.5 13.5C83.5 25.5 91.9287 33.9158 81.9375 42.4375L93.75 64.375C73.5 72.8125 61.4496 81.396 59.3443 86.0073C47.6147 90.3112 42.5018 86.6221 40.0958 84.4702C29.625 77.875 24.5625 71.125 6 62.6875L15.0065 42.046C7.00632 34.2068 13.4999 28.5 15.5 12Z" fill="#E0E0E0"/>
<path d="M16.9999 15.5C29.108 20.1278 33.7905 25.0248 39.5418 31.8122C46.2013 29.0355 53.1635 29.0355 59.823 31.8122C64.6663 22.2481 72.7215 21.6278 81.4999 17C83.1768 27 87.4666 34.2242 78.3855 41.9372L90.198 62.1872C73.323 72.3122 66.573 70.6247 56.3849 83.515C49.12 85.6746 46.3957 84.2382 41.8551 82.5894C40.0389 78.8872 24.3855 70.6247 9.198 60.4997L17.4814 40.9393C10.2165 33.8433 16.1249 28.5 16.9999 15.5Z" fill="#253C4B"/>
<path fill-rule="evenodd" clip-rule="evenodd" d="M65.1383 32.2912C67.6677 29.2142 71.8512 26.3228 78.5001 22.9999C79.4553 27.6875 79.4574 34.0838 75.3245 38.1095C73.4407 34.3083 68.7354 32.8745 65.1383 32.2912Z" fill="white"/>
<path fill-rule="evenodd" clip-rule="evenodd" d="M22.0265 36.6756C23.9224 34.663 27.4748 32.5644 30.8822 31.7689C29.4999 25.4999 24.9999 27.4999 20.5 22C19.7971 28.2491 20.3309 34.537 22.0265 36.6756Z" fill="white"/>
<path fill-rule="evenodd" clip-rule="evenodd" d="M46.2601 73.0743C44.5199 73.0743 42.7796 71.3135 42.7796 69.2591C42.7796 67.2048 44.2298 64.8569 47.1302 64.8569C50.0306 64.8569 52.0609 66.3243 52.0609 69.2591C52.0609 71.6069 50.6107 73.0743 48.5804 73.0743C48.505 73.6026 48.3078 74.1837 48.302 74.5417C48.273 75.5102 48.5804 75.7156 48.5804 75.7156C48.5804 75.7156 49.1721 76.3026 50.3323 76.3026C50.8311 76.3026 51.591 75.6863 52.0609 75.4222C52.6758 75.07 53.2327 75.1287 53.8127 75.1287C53.8127 76.0091 51.2024 78.0635 50.6223 78.0635C49.7522 78.0635 49.2475 77.3826 47.7103 77.4765C46.2601 77.8111 45.39 78.3569 44.5199 78.3569C43.6555 78.3569 42.4374 76.2439 41.6252 75.1287C42.3619 74.9761 42.5708 74.8763 43.3713 75.1287C44.1544 75.3752 44.0848 76.2732 44.8215 76.3026C45.4016 76.3026 45.9352 76.1676 46.2601 75.7156C46.6836 75.1169 46.4283 73.6026 46.2601 73.0743Z" fill="white"/>
<path fill-rule="evenodd" clip-rule="evenodd" d="M17.8125 52.5625C24.5625 50.875 26.8735 47.8326 34.6875 42.4375L48.1875 52.5625L65.0625 42.4375C72.576 47.1979 70.125 47.5 80.25 49.1875C75.7419 48.8701 75.1875 49.1875 71.8125 49.1875L64.8426 44.8391C60.9957 46.9337 53.09 51.0253 49.9344 55.2081C48.7322 58.6991 49.3125 62.125 51.5625 64.375C45.8403 61.8996 44.6277 63.7403 43.125 64.375C46.7375 61.2014 45.9583 59.3338 46.5594 55.2081C42.9288 51.2474 38.4313 46.7179 34.7827 44.5218C30.5572 46.3117 27 49 26.25 52.5625C22.875 50.875 21.1875 52.5625 17.8125 52.5625Z" fill="white"/>
<path d="M50.0627 67.7502C50.5805 67.7502 51.0002 67.5343 51.0002 67.268C51.0002 67.0018 50.5805 66.7859 50.0627 66.7859C49.545 66.7859 49.1252 67.0018 49.1252 67.268C49.1252 67.5343 49.545 67.7502 50.0627 67.7502Z" fill="white"/>
<path d="M63.1875 54.2503C64.223 54.2503 65.0625 53.6027 65.0625 52.8039C65.0625 52.005 64.223 51.3574 63.1875 51.3574C62.152 51.3574 61.3125 52.005 61.3125 52.8039C61.3125 53.6027 62.152 54.2503 63.1875 54.2503Z" fill="white"/>
<path d="M35.9995 54.2503C37.035 54.2503 37.8745 53.6027 37.8745 52.8039C37.8745 52.005 37.035 51.3574 35.9995 51.3574C34.964 51.3574 34.1245 52.005 34.1245 52.8039C34.1245 53.6027 34.964 54.2503 35.9995 54.2503Z" fill="white"/>
<path d="M51.248 22.1737C49.2474 21.6737 47.2466 21.6737 45.9125 22.1737C41.2464 18.0379 36.5753 15.6737 30.5729 15.1737C27.2383 15.1737 24.5706 22.1737 25.2373 27.1737C25.8127 33.1464 29.2392 38.1737 32.5737 38.1737C37.9095 38.1737 42.1808 34.5537 45.9125 30.1737C47.2466 30.6737 49.2474 30.6737 51.248 30.1737C53.2491 34.1737 59.2515 38.1737 63.9199 38.1737C67.9218 38.1737 71.2565 32.1737 71.9232 27.6737C72.4082 24.3995 70.5895 16.1737 66.5876 15.1737C62.4714 14.1451 55.5163 17.8386 51.248 22.1737Z" fill="#E0E0E0"/>
<path d="M51.8122 23.5C49.9332 23.0469 47.0628 23.0469 45.8098 23.5C41.4272 19.7522 37.2142 16.6106 31.5764 16.1575C28.4445 16.1575 25.9389 22.5009 26.5651 27.0319C27.1055 32.4443 29.3391 37 32.471 37C37.4826 37 42.3048 32.9692 45.8098 29C47.0628 29.4531 49.9332 29.4531 51.8122 29C53.6917 32.6248 59.4324 37 63.8172 37C67.5759 37 69.8604 31.0779 70.4866 27C70.9422 24.0329 69.5767 17.9062 65.818 17C61.9519 16.0679 55.8212 19.5716 51.8122 23.5Z" fill="#253C4B"/>
<path d="M45.8095 23.5C44.9755 25.6666 44.9375 26.8705 45.8095 29C45.5846 28.8314 45.3597 28.3784 45.2115 27.7754C39.1401 27.2943 35.8055 27.5 30.4699 30C34.6783 27.7754 38.8684 26.9623 45.0993 27.1838C45.0483 26.8141 45.0268 26.4124 45.0469 26C39.0723 24.7948 35.6381 24.6823 29.5312 24.3588C35.6445 24.5811 39.0882 24.6038 45.0802 25.5942C45.1134 25.3091 45.1679 25.0223 45.2476 24.7406C39.9409 22.4109 36.812 21.7594 31.1369 21C36.8295 21.5698 39.9927 22.0484 45.3728 24.3588C45.485 24.06 45.6289 23.7708 45.8095 23.5Z" fill="#D9D9D9"/>
<path d="M51.8121 29C53.8129 25.5 51.8121 24 51.8121 23.5C52.0823 23.8536 52.3103 24.1817 52.4947 24.4928C56.4251 22.695 58.6046 22.0426 62.4831 21.5C58.3993 22.3583 56.2728 23.0761 52.6752 24.8194C52.8182 25.0997 52.9228 25.3678 52.9881 25.631C57.2542 25.1794 59.6161 25.2512 63.817 25.5C59.5472 25.4284 57.1746 25.4716 53.0539 26C53.0999 26.4281 53.0378 26.8515 52.8629 27.3017C56.3101 28.0977 61.4234 29.7313 64.4839 31C61.306 29.9151 56.1471 28.3628 52.7403 27.5838C52.5323 28.0179 52.2242 28.4813 51.8121 29Z" fill="#D9D9D9"/>
</g>
</svg>
