<svg width="65" height="78" viewBox="0 0 65 78" fill="none" xmlns="http://www.w3.org/2000/svg">
<path d="M53.5395 -6.10352e-05H8.74114C3.91354 -6.10352e-05 0 3.91565 0 8.74592V68.8745C0 73.7048 3.91354 77.6205 8.74114 77.6205H53.5395C58.3671 77.6205 62.2807 73.7048 62.2807 68.8745V8.74592C62.2807 3.91565 58.3671 -6.10352e-05 53.5395 -6.10352e-05Z" fill="white"/>
<path fill-rule="evenodd" clip-rule="evenodd" d="M33.3253 63.9549L39.3348 72.1543H9.83346C7.10186 72.1543 5.46289 69.9678 5.46289 67.7813V10.9324C5.46289 8.19932 7.10186 6.55945 9.83346 6.55945H54.0855C56.2708 6.55945 57.3634 7.6527 57.3634 9.83919V31.7041H49.7149V14.7588H14.204V63.9549H33.3253Z" fill="#416279"/>
<path fill-rule="evenodd" clip-rule="evenodd" d="M37.4118 55.7446L55.4404 37.706C59.2647 33.8906 67.4595 40.4501 63.0889 45.3588L42.875 63.944C39.5971 66.1414 37.4118 66.1414 35.2265 63.944C29.9054 56.7285 27.578 48.6494 28.6707 48.6494C29.7633 48.6494 35.0736 51.3935 37.4118 55.7446Z" fill="#FBC52A"/>
</svg>
