<svg width="81" height="82" viewBox="0 0 81 82" fill="none" xmlns="http://www.w3.org/2000/svg">
<path d="M66 2H15C7.8203 2 2 7.82031 2 15V51.9123C2 59.092 7.8203 64.9123 15 64.9123H61.743C65.2089 64.9123 68.3668 66.9025 69.8622 70.0292L73.7014 78.0566C74.1643 79.0244 75.1417 79.6404 76.2144 79.6404C77.7528 79.6404 79 78.3932 79 76.8548V62.9123V15C79 7.8203 73.1797 2 66 2Z" fill="#FFC631" stroke="white" stroke-width="4"/>
<rect x="11.6842" y="12.965" width="57.6316" height="10.2456" rx="2" fill="white"/>
<rect x="11.6842" y="28.3334" width="57.6316" height="10.2456" rx="2" fill="white"/>
<rect x="11.6842" y="43.7018" width="57.6316" height="10.2456" rx="2" fill="white"/>
</svg>
