<svg width="445" height="466" viewBox="0 0 445 466" fill="none" xmlns="http://www.w3.org/2000/svg">
<g clip-path="url(#clip0_140_4380)">
<path fill-rule="evenodd" clip-rule="evenodd" d="M221.314 197.424C209.819 184.098 191.813 181.572 169.424 169C158.531 198.069 157.624 217.376 172.156 231.315L140.469 266.846C162.858 291.586 171.129 299.37 201.1 312.215C178.712 352.666 155.22 336.813 148.107 354.305C146.665 354.305 101.615 354.305 76.0035 354.305C69.9503 354.305 63.4381 360.318 66.7379 368.518L95.6711 442.859H80.8767C71.0866 442.859 70.5403 465.817 80.8767 465.817L354.627 465.27C366.1 465.27 367.193 443.405 354.627 443.405H316.931C320.209 441.765 323.52 432.91 325.126 430.833C352.956 427.804 381.408 403.95 386.86 371.251C391.701 345.811 386.27 329.226 392.324 311.669C396.552 298.943 404.889 290.35 422.918 297.457C422.918 276.86 413.499 258.646 392.324 258.646C350.152 257.966 327.421 278.568 324.58 308.936C319.663 337.907 333.321 346.106 333.321 386.01C326.765 331.894 314.364 323.257 290.162 299.643C307.152 286.699 315.598 281.932 329.497 266.299L301.088 230.768C319.237 215.616 309.381 185.956 302.727 169C285.168 178.085 261.054 178.642 251.373 197.424C244.271 192.505 228.974 192.505 221.314 197.424Z" fill="white"/>
<path fill-rule="evenodd" clip-rule="evenodd" d="M217.446 202.344C207.066 190.318 194.501 186.492 172.648 178.293C162.814 204.531 164.453 218.196 177.565 230.768L148.063 265.752C168.277 288.077 181.105 298.441 208.159 310.029C181.389 362.505 157.897 344.466 152.434 359.772C151.123 359.772 104.543 359.772 81.4121 359.772C75.9489 359.772 70.4857 365.238 74.8562 373.984L103.265 447.778H84.1437C77.0415 447.778 77.0415 461.444 84.1437 461.444H352.934C361.675 461.444 361.675 447.232 352.934 447.232L304.311 447.778C312.725 441.098 316.899 436.813 321.794 427.006C346.924 424.273 378.065 398.582 382.982 369.064C387.352 346.106 382.982 328.068 388.445 312.215C392.269 300.736 401.01 285.431 418.492 292.537C418.492 273.952 407.566 263.019 388.445 263.019C351.295 263.019 331.627 278.871 327.803 313.309C325.071 348.839 349.11 377.81 327.803 412.794C337.342 355.333 308.136 320.415 286.283 299.096C301.623 287.41 309.796 280.402 322.34 266.299L294.477 230.768C310.867 217.103 305.404 193.598 299.394 178.293C283.551 186.492 262.791 185.399 254.05 202.344C242.031 197.424 229.465 197.424 217.446 202.344Z" fill="#111A1B"/>
<path fill-rule="evenodd" clip-rule="evenodd" d="M256.366 421.54C258.704 402.999 263.304 394.92 282.043 388.196C262.922 386.556 253.088 398.582 256.366 421.54Z" fill="white"/>
<path fill-rule="evenodd" clip-rule="evenodd" d="M188.535 202.891L182.536 194.145C197.615 196.331 204.924 199.228 214.212 209.45C226.242 197.424 247.002 200.158 260.114 209.45C270.068 199.447 277.181 195.664 293.986 194.145C296.717 209.45 295.625 218.743 283.606 229.675C288.195 243.975 294.619 251.037 306.005 263.566C288.523 279.418 252.465 301.83 235.529 301.83C220.221 301.83 196.183 281.605 168.332 264.659L184.711 247.167C185.781 240.302 186.819 236.311 191.266 228.582L193.998 225.849C187.956 220.186 188.753 213.451 188.535 202.891Z" fill="#ADB1B4"/>
<path fill-rule="evenodd" clip-rule="evenodd" d="M267.216 213.823C273.51 207.876 278.798 205.099 287.43 201.251C288.271 211.56 286.632 216.884 281.42 225.302C277.858 218.185 274.864 216.01 267.216 213.823Z" fill="#111A1B"/>
<path fill-rule="evenodd" clip-rule="evenodd" d="M222.418 266.846C216.397 273.405 213.666 290.897 220.768 297.457C197.276 285.978 186.896 276.685 168.332 264.659L175.98 261.379L204.378 278.325C210.792 272.574 214.463 269.448 222.418 266.846Z" fill="#667381"/>
<path fill-rule="evenodd" clip-rule="evenodd" d="M191.266 228.582L193.998 225.849C188.753 220.426 188.535 207.81 188.535 202.891L182.536 194.145C179.433 210.259 181.269 219.169 191.266 228.582Z" fill="#667381"/>
<path fill-rule="evenodd" clip-rule="evenodd" d="M193.998 225.849C198.117 221.159 201.056 218.262 208.912 216.01C199.822 207.745 195.331 206.389 188.535 202.891C187.89 216.677 189.682 221.421 193.998 225.849Z" fill="#111A1B"/>
<path fill-rule="evenodd" clip-rule="evenodd" d="M269.948 276.685C267.762 277.232 266.67 282.151 268.309 284.338C284.152 273.952 296.171 266.299 307.097 263.566L292.893 248.26C286.49 233.698 272.679 228.035 260.114 219.836L235.529 239.515L212.573 219.289C198.325 228.735 188.535 234.048 184.711 246.621L168.332 264.659C179.258 263.019 192.905 246.621 208.202 236.235C229.52 246.621 228.973 254.273 222.407 266.846C210.934 277.778 210.934 302.923 235.529 302.923C248.641 302.923 255.743 294.724 255.743 283.791C255.743 271.765 248.641 270.672 244.27 264.113C242.632 247.167 250.28 243.887 261.753 235.688L299.449 261.926C287.43 265.206 289.615 269.579 269.948 276.685Z" fill="white"/>
<path fill-rule="evenodd" clip-rule="evenodd" d="M228.952 286.524C225.674 286.524 222.396 283.244 222.396 279.418C222.396 275.592 225.127 271.219 230.591 271.219C236.054 271.219 239.878 273.952 239.878 279.418C239.878 283.791 237.146 286.524 233.322 286.524C233.18 287.508 232.809 288.59 232.798 289.257C232.743 291.061 233.322 291.444 233.322 291.444C233.322 291.444 234.437 292.537 236.622 292.537C237.562 292.537 238.993 291.389 239.878 290.897C241.036 290.241 242.085 290.351 243.178 290.351C243.178 291.99 238.261 295.817 237.168 295.817C235.529 295.817 234.579 294.549 231.683 294.724C228.952 295.347 227.313 296.363 225.674 296.363C224.046 296.363 221.751 292.428 220.221 290.351C221.609 290.066 222.002 289.88 223.51 290.351C224.985 290.81 224.854 292.482 226.242 292.537C227.335 292.537 228.34 292.286 228.952 291.444C229.749 290.329 229.269 287.508 228.952 286.524Z" fill="#111A1B"/>
<path fill-rule="evenodd" clip-rule="evenodd" d="M181.443 246.074C197.276 234.048 197.276 234.048 211.48 224.756L235.529 245.527L260.114 225.849C273.772 234.048 277.05 235.141 295.625 247.714C287.43 247.167 284.152 246.074 277.596 245.527L262.845 236.781C255.852 240.389 252.192 243.242 246.456 250.447C244.27 256.46 244.27 258.646 244.27 264.113C233.868 259.849 222.407 266.846 219.675 267.939C226.242 262.473 226.242 257.553 227.334 250.447C220.735 243.625 214.835 240.017 208.202 236.235C200.521 239.318 199.45 242.783 193.452 247.714C186.896 246.621 186.896 246.621 181.443 246.074Z" fill="#FFC631"/>
<path fill-rule="evenodd" clip-rule="evenodd" d="M175.98 261.379C186.841 268.518 192.752 272.126 204.378 278.325C211.054 272.793 214.9 270.421 222.407 266.846C227.258 259.455 230.066 255.367 226.242 248.26C224.057 244.981 214.529 239.558 208.202 235.688C194.49 243.155 188.677 249.201 175.98 261.379Z" fill="#111A1B"/>
<path fill-rule="evenodd" clip-rule="evenodd" d="M268.309 278.325C275.957 276.138 287.965 266.846 299.449 261.926C294.532 259.193 279.235 244.434 261.753 235.688C254.76 239.974 249.734 242.248 245.909 249.9C244.27 253.18 242.631 262.473 244.27 264.113C254.651 268.486 258.202 272.574 268.309 278.325Z" fill="#111A1B"/>
<path d="M235.53 277.778C236.435 277.778 237.169 277.044 237.169 276.138C237.169 275.233 236.435 274.498 235.53 274.498C234.624 274.498 233.891 275.233 233.891 276.138C233.891 277.044 234.624 277.778 235.53 277.778Z" fill="white"/>
<path d="M259.568 253.727C261.076 253.727 262.299 252.503 262.299 250.994C262.299 249.484 261.076 248.26 259.568 248.26C258.059 248.26 256.836 249.484 256.836 250.994C256.836 252.503 258.059 253.727 259.568 253.727Z" fill="white"/>
<path d="M210.399 253.727C211.907 253.727 213.13 252.503 213.13 250.994C213.13 249.484 211.907 248.26 210.399 248.26C208.89 248.26 207.667 249.484 207.667 250.994C207.667 252.503 208.89 253.727 210.399 253.727Z" fill="white"/>
<path fill-rule="evenodd" clip-rule="evenodd" d="M262.299 311.669C250.608 319.606 243.768 322.405 231.159 323.695C225.696 340.093 206.017 355.399 183.629 359.772C220.768 363.598 232.142 352.611 245.363 340.093C240.075 349.298 235.213 353.016 226.788 359.772C253.012 349.933 262.299 334.08 262.299 311.669Z" fill="#BBBDBF"/>
<path fill-rule="evenodd" clip-rule="evenodd" d="M249.734 330.254C243.724 344.466 236.622 352.119 221.86 361.958C245.91 353.212 251.919 343.373 249.734 330.254Z" fill="#5C616B"/>
<path fill-rule="evenodd" clip-rule="evenodd" d="M232.251 357.585C233.89 354.306 239.354 351.572 241.539 347.746C240.993 351.026 241.539 353.212 233.344 357.039L232.251 357.585Z" fill="#41474C"/>
<path fill-rule="evenodd" clip-rule="evenodd" d="M85.291 373.437H192.905C196.73 373.437 209.623 418.72 220.221 447.778H113.153L85.291 373.437Z" fill="white"/>
<path fill-rule="evenodd" clip-rule="evenodd" d="M87.4763 379.45H186.896C190.174 379.45 202.291 420.884 212.027 447.778H113.153L87.4763 379.45Z" fill="#FAC32D"/>
<path d="M150.304 419.9C155.433 419.9 159.591 415.985 159.591 411.154C159.591 406.324 155.433 402.408 150.304 402.408C145.174 402.408 141.016 406.324 141.016 411.154C141.016 415.985 145.174 419.9 150.304 419.9Z" fill="#111A1B"/>
<path fill-rule="evenodd" clip-rule="evenodd" d="M231.159 323.695C238.807 322.601 238.807 322.601 244.817 320.961C237.431 337.83 229.432 347.779 204.925 357.039C214.758 371.797 224.603 411.701 237.715 447.778H228.974L203.286 373.437C200.554 366.331 192.359 360.318 183.629 359.772C214.988 346.478 223.882 338.027 231.159 323.695Z" fill="white"/>
<path fill-rule="evenodd" clip-rule="evenodd" d="M333.321 356.492C350.978 340.214 368.832 339 385.222 347.746C385.44 356.995 385.112 362.111 382.49 370.704C365.008 364.145 355.239 364.025 336.599 375.077C335.506 373.984 334.512 363.839 333.321 356.492Z" fill="#C1C3C4"/>
<path fill-rule="evenodd" clip-rule="evenodd" d="M327.858 313.855C326.765 322.055 327.311 329.161 328.95 334.627C346.979 318.217 360.091 317.682 385.768 326.428C386.642 319.114 388.499 312.762 390.685 306.749C372.656 295.806 344.247 295.27 327.858 313.855Z" fill="#C1C3C4"/>
<path d="M70.5395 245H25.7411C20.9135 245 17 248.916 17 253.746V313.875C17 318.705 20.9135 322.621 25.7411 322.621H70.5395C75.3671 322.621 79.2807 318.705 79.2807 313.875V253.746C79.2807 248.916 75.3671 245 70.5395 245Z" fill="white"/>
<path fill-rule="evenodd" clip-rule="evenodd" d="M50.3253 308.955L56.3348 317.154H26.8335C24.1019 317.154 22.4629 314.968 22.4629 312.781V255.932C22.4629 253.199 24.1019 251.56 26.8335 251.56H71.0855C73.2708 251.56 74.3634 252.653 74.3634 254.839V276.704H66.7149V259.759H31.204V308.955H50.3253Z" fill="#416279"/>
<path fill-rule="evenodd" clip-rule="evenodd" d="M54.4118 300.745L72.4404 282.706C76.2646 278.891 84.4595 285.45 80.0889 290.359L59.875 308.944C56.5971 311.141 54.4118 311.141 52.2265 308.944C46.9053 301.729 44.578 293.65 45.6706 293.65C46.7633 293.65 52.0735 296.394 54.4118 300.745Z" fill="#FBC52A"/>
<path d="M48 108C40.8203 108 35 113.82 35 121V157.912C35 165.092 40.8203 170.912 48 170.912H94.743C98.2089 170.912 101.367 172.902 102.862 176.029L106.701 184.057C107.164 185.024 108.142 185.64 109.214 185.64C110.753 185.64 112 184.393 112 182.855V168.912V121C112 113.82 106.18 108 99 108H48Z" fill="#FFC631" stroke="white" stroke-width="4"/>
<rect x="44.6842" y="118.965" width="57.6316" height="10.2456" rx="2" fill="white"/>
<rect x="44.6842" y="134.333" width="57.6316" height="10.2456" rx="2" fill="white"/>
<rect x="44.6842" y="149.702" width="57.6316" height="10.2456" rx="2" fill="white"/>
<g clip-path="url(#clip1_140_4380)">
<rect x="184" y="74" width="71" height="22.3333" fill="#FDD200" stroke="white" stroke-width="2"/>
<rect x="184" y="98.3334" width="22.3333" height="22.3333" fill="#416279" stroke="white" stroke-width="2"/>
<rect x="208.333" y="98.3334" width="22.3333" height="22.3333" fill="#80CE84" stroke="white" stroke-width="2"/>
<rect x="232.667" y="98.3334" width="22.3333" height="22.3333" fill="#80CE84" stroke="white" stroke-width="2"/>
<rect x="184" y="122.667" width="22.3333" height="22.3333" fill="#598CAF" stroke="white" stroke-width="2"/>
<rect x="208.333" y="122.667" width="22.3333" height="22.3333" fill="#416279" stroke="white" stroke-width="2"/>
<rect x="232.667" y="122.667" width="22.3333" height="22.3333" fill="#80CE84" stroke="white" stroke-width="2"/>
</g>
<rect x="185" y="75" width="69" height="69" rx="8" stroke="white" stroke-width="4"/>
<mask id="path-42-outside-1_140_4380" maskUnits="userSpaceOnUse" x="295" y="69" width="115" height="42" fill="black">
<rect fill="white" x="295" y="69" width="115" height="42"/>
<path d="M303.344 107.432C301.936 107.432 300.848 107.048 300.08 106.28C299.312 105.48 298.928 104.36 298.928 102.92V77.24C298.928 75.768 299.312 74.648 300.08 73.88C300.848 73.112 301.936 72.728 303.344 72.728C304.784 72.728 305.872 73.112 306.608 73.88C307.376 74.648 307.76 75.768 307.76 77.24V86.216H321.728V77.24C321.728 75.768 322.096 74.648 322.832 73.88C323.6 73.112 324.704 72.728 326.144 72.728C327.552 72.728 328.624 73.112 329.36 73.88C330.128 74.648 330.512 75.768 330.512 77.24V102.92C330.512 104.36 330.128 105.48 329.36 106.28C328.624 107.048 327.552 107.432 326.144 107.432C324.704 107.432 323.6 107.048 322.832 106.28C322.096 105.48 321.728 104.36 321.728 102.92V93.464H307.76V102.92C307.76 104.36 307.392 105.48 306.656 106.28C305.92 107.048 304.816 107.432 303.344 107.432ZM354.039 107.528C351.575 107.528 349.399 107.224 347.511 106.616C345.623 105.976 344.023 105.032 342.711 103.784C341.431 102.536 340.455 100.984 339.783 99.128C339.143 97.24 338.823 95.064 338.823 92.6V77.192C338.823 75.72 339.207 74.616 339.975 73.88C340.743 73.112 341.831 72.728 343.239 72.728C344.679 72.728 345.767 73.112 346.503 73.88C347.271 74.616 347.655 75.72 347.655 77.192V92.696C347.655 95.16 348.199 97.016 349.287 98.264C350.375 99.512 351.959 100.136 354.039 100.136C356.087 100.136 357.655 99.512 358.743 98.264C359.831 97.016 360.375 95.16 360.375 92.696V77.192C360.375 75.72 360.743 74.616 361.479 73.88C362.247 73.112 363.335 72.728 364.743 72.728C366.151 72.728 367.223 73.112 367.959 73.88C368.695 74.616 369.063 75.72 369.063 77.192V92.6C369.063 95.896 368.487 98.664 367.335 100.904C366.215 103.112 364.535 104.776 362.295 105.896C360.055 106.984 357.303 107.528 354.039 107.528ZM381.977 107C380.473 107 379.321 106.616 378.521 105.848C377.753 105.048 377.369 103.912 377.369 102.44V77.72C377.369 76.248 377.753 75.128 378.521 74.36C379.321 73.56 380.473 73.16 381.977 73.16H393.689C396.121 73.16 398.185 73.528 399.881 74.264C401.609 74.968 402.921 75.976 403.817 77.288C404.713 78.6 405.161 80.136 405.161 81.896C405.161 83.88 404.585 85.576 403.433 86.984C402.313 88.392 400.777 89.352 398.825 89.864V89.096C401.129 89.512 402.905 90.44 404.153 91.88C405.433 93.32 406.073 95.16 406.073 97.4C406.073 100.376 405.001 102.728 402.857 104.456C400.745 106.152 397.849 107 394.169 107H381.977ZM385.817 100.52H392.969C394.601 100.52 395.785 100.216 396.521 99.608C397.289 98.968 397.673 98.024 397.673 96.776C397.673 95.528 397.289 94.6 396.521 93.992C395.785 93.384 394.601 93.08 392.969 93.08H385.817V100.52ZM385.817 86.6H392.105C393.705 86.6 394.873 86.312 395.609 85.736C396.377 85.16 396.761 84.28 396.761 83.096C396.761 81.912 396.377 81.048 395.609 80.504C394.873 79.928 393.705 79.64 392.105 79.64H385.817V86.6Z"/>
</mask>
<path d="M303.344 107.432C301.936 107.432 300.848 107.048 300.08 106.28C299.312 105.48 298.928 104.36 298.928 102.92V77.24C298.928 75.768 299.312 74.648 300.08 73.88C300.848 73.112 301.936 72.728 303.344 72.728C304.784 72.728 305.872 73.112 306.608 73.88C307.376 74.648 307.76 75.768 307.76 77.24V86.216H321.728V77.24C321.728 75.768 322.096 74.648 322.832 73.88C323.6 73.112 324.704 72.728 326.144 72.728C327.552 72.728 328.624 73.112 329.36 73.88C330.128 74.648 330.512 75.768 330.512 77.24V102.92C330.512 104.36 330.128 105.48 329.36 106.28C328.624 107.048 327.552 107.432 326.144 107.432C324.704 107.432 323.6 107.048 322.832 106.28C322.096 105.48 321.728 104.36 321.728 102.92V93.464H307.76V102.92C307.76 104.36 307.392 105.48 306.656 106.28C305.92 107.048 304.816 107.432 303.344 107.432ZM354.039 107.528C351.575 107.528 349.399 107.224 347.511 106.616C345.623 105.976 344.023 105.032 342.711 103.784C341.431 102.536 340.455 100.984 339.783 99.128C339.143 97.24 338.823 95.064 338.823 92.6V77.192C338.823 75.72 339.207 74.616 339.975 73.88C340.743 73.112 341.831 72.728 343.239 72.728C344.679 72.728 345.767 73.112 346.503 73.88C347.271 74.616 347.655 75.72 347.655 77.192V92.696C347.655 95.16 348.199 97.016 349.287 98.264C350.375 99.512 351.959 100.136 354.039 100.136C356.087 100.136 357.655 99.512 358.743 98.264C359.831 97.016 360.375 95.16 360.375 92.696V77.192C360.375 75.72 360.743 74.616 361.479 73.88C362.247 73.112 363.335 72.728 364.743 72.728C366.151 72.728 367.223 73.112 367.959 73.88C368.695 74.616 369.063 75.72 369.063 77.192V92.6C369.063 95.896 368.487 98.664 367.335 100.904C366.215 103.112 364.535 104.776 362.295 105.896C360.055 106.984 357.303 107.528 354.039 107.528ZM381.977 107C380.473 107 379.321 106.616 378.521 105.848C377.753 105.048 377.369 103.912 377.369 102.44V77.72C377.369 76.248 377.753 75.128 378.521 74.36C379.321 73.56 380.473 73.16 381.977 73.16H393.689C396.121 73.16 398.185 73.528 399.881 74.264C401.609 74.968 402.921 75.976 403.817 77.288C404.713 78.6 405.161 80.136 405.161 81.896C405.161 83.88 404.585 85.576 403.433 86.984C402.313 88.392 400.777 89.352 398.825 89.864V89.096C401.129 89.512 402.905 90.44 404.153 91.88C405.433 93.32 406.073 95.16 406.073 97.4C406.073 100.376 405.001 102.728 402.857 104.456C400.745 106.152 397.849 107 394.169 107H381.977ZM385.817 100.52H392.969C394.601 100.52 395.785 100.216 396.521 99.608C397.289 98.968 397.673 98.024 397.673 96.776C397.673 95.528 397.289 94.6 396.521 93.992C395.785 93.384 394.601 93.08 392.969 93.08H385.817V100.52ZM385.817 86.6H392.105C393.705 86.6 394.873 86.312 395.609 85.736C396.377 85.16 396.761 84.28 396.761 83.096C396.761 81.912 396.377 81.048 395.609 80.504C394.873 79.928 393.705 79.64 392.105 79.64H385.817V86.6Z" fill="#FDD200"/>
<path d="M300.08 106.28L297.916 108.358C297.93 108.372 297.944 108.387 297.959 108.401L300.08 106.28ZM300.08 73.88L297.959 71.7587L297.959 71.7587L300.08 73.88ZM306.608 73.88L304.442 75.9557C304.457 75.9711 304.472 75.9863 304.487 76.0013L306.608 73.88ZM307.76 86.216H304.76C304.76 87.8729 306.103 89.216 307.76 89.216V86.216ZM321.728 86.216V89.216C323.385 89.216 324.728 87.8729 324.728 86.216H321.728ZM322.832 73.88L320.711 71.7587C320.696 71.7737 320.681 71.7889 320.666 71.8043L322.832 73.88ZM329.36 73.88L327.194 75.9557C327.209 75.9711 327.224 75.9863 327.239 76.0013L329.36 73.88ZM329.36 106.28L327.196 104.202L327.194 104.204L329.36 106.28ZM322.832 106.28L320.624 108.311C320.653 108.342 320.681 108.372 320.711 108.401L322.832 106.28ZM321.728 93.464H324.728C324.728 91.8071 323.385 90.464 321.728 90.464V93.464ZM307.76 93.464V90.464C306.103 90.464 304.76 91.8071 304.76 93.464H307.76ZM306.656 106.28L308.822 108.356C308.836 108.341 308.85 108.326 308.864 108.311L306.656 106.28ZM303.344 104.432C302.486 104.432 302.254 104.211 302.202 104.159L297.959 108.401C299.442 109.885 301.387 110.432 303.344 110.432V104.432ZM302.244 104.202C302.158 104.113 301.928 103.825 301.928 102.92H295.928C295.928 104.895 296.466 106.847 297.916 108.358L302.244 104.202ZM301.928 102.92V77.24H295.928V102.92H301.928ZM301.928 77.24C301.928 76.2733 302.173 76.0302 302.202 76.0013L297.959 71.7587C296.452 73.2658 295.928 75.2627 295.928 77.24H301.928ZM302.202 76.0013C302.254 75.9488 302.486 75.728 303.344 75.728V69.728C301.387 69.728 299.442 70.2752 297.959 71.7587L302.202 76.0013ZM303.344 75.728C303.805 75.728 304.087 75.7903 304.242 75.845C304.381 75.8942 304.426 75.9388 304.442 75.9557L308.774 71.8043C307.294 70.26 305.303 69.728 303.344 69.728V75.728ZM304.487 76.0013C304.516 76.0302 304.76 76.2733 304.76 77.24H310.76C310.76 75.2627 310.237 73.2658 308.73 71.7587L304.487 76.0013ZM304.76 77.24V86.216H310.76V77.24H304.76ZM307.76 89.216H321.728V83.216H307.76V89.216ZM324.728 86.216V77.24H318.728V86.216H324.728ZM324.728 77.24C324.728 76.2409 324.975 75.9804 324.998 75.9557L320.666 71.8043C319.218 73.3156 318.728 75.2951 318.728 77.24H324.728ZM324.954 76.0013C324.994 75.9609 325.232 75.728 326.144 75.728V69.728C324.177 69.728 322.206 70.2631 320.711 71.7587L324.954 76.0013ZM326.144 75.728C327.01 75.728 327.19 75.9515 327.194 75.9557L331.526 71.8043C330.058 70.2725 328.094 69.728 326.144 69.728V75.728ZM327.239 76.0013C327.268 76.0302 327.512 76.2733 327.512 77.24H333.512C333.512 75.2627 332.989 73.2658 331.482 71.7587L327.239 76.0013ZM327.512 77.24V102.92H333.512V77.24H327.512ZM327.512 102.92C327.512 103.825 327.282 104.113 327.196 104.202L331.524 108.358C332.974 106.847 333.512 104.895 333.512 102.92H327.512ZM327.194 104.204C327.19 104.209 327.01 104.432 326.144 104.432V110.432C328.094 110.432 330.058 109.887 331.526 108.356L327.194 104.204ZM326.144 104.432C325.232 104.432 324.994 104.199 324.954 104.159L320.711 108.401C322.206 109.897 324.177 110.432 326.144 110.432V104.432ZM325.04 104.249C324.961 104.162 324.728 103.857 324.728 102.92H318.728C318.728 104.863 319.232 106.798 320.624 108.311L325.04 104.249ZM324.728 102.92V93.464H318.728V102.92H324.728ZM321.728 90.464H307.76V96.464H321.728V90.464ZM304.76 93.464V102.92H310.76V93.464H304.76ZM304.76 102.92C304.76 103.857 304.528 104.162 304.448 104.249L308.864 108.311C310.257 106.798 310.76 104.863 310.76 102.92H304.76ZM304.49 104.204C304.482 104.213 304.44 104.259 304.291 104.311C304.126 104.368 303.828 104.432 303.344 104.432V110.432C305.312 110.432 307.331 109.912 308.822 108.356L304.49 104.204ZM347.511 106.616L346.548 109.457C346.562 109.462 346.576 109.467 346.591 109.472L347.511 106.616ZM342.711 103.784L340.616 105.932C340.625 105.941 340.634 105.949 340.643 105.958L342.711 103.784ZM339.783 99.128L336.941 100.091C336.948 100.111 336.955 100.13 336.962 100.149L339.783 99.128ZM339.975 73.88L342.05 76.046C342.066 76.0312 342.081 76.0164 342.096 76.0013L339.975 73.88ZM346.503 73.88L344.337 75.9557C344.366 75.9864 344.396 76.0165 344.427 76.046L346.503 73.88ZM349.287 98.264L347.025 100.235L349.287 98.264ZM358.743 98.264L361.004 100.235L358.743 98.264ZM367.959 73.88L365.793 75.9557C365.807 75.9711 365.822 75.9863 365.837 76.0013L367.959 73.88ZM367.335 100.904L364.667 99.532C364.664 99.5369 364.662 99.5419 364.659 99.5469L367.335 100.904ZM362.295 105.896L363.605 108.595C363.616 108.59 363.626 108.584 363.636 108.579L362.295 105.896ZM354.039 104.528C351.814 104.528 349.959 104.253 348.43 103.76L346.591 109.472C348.838 110.195 351.335 110.528 354.039 110.528V104.528ZM348.474 103.775C346.956 103.26 345.744 102.529 344.778 101.61L340.643 105.958C342.301 107.535 344.289 108.692 346.548 109.457L348.474 103.775ZM344.805 101.636C343.881 100.736 343.138 99.582 342.603 98.1067L336.962 100.149C337.772 102.386 338.98 104.336 340.616 105.932L344.805 101.636ZM342.624 98.1649C342.11 96.6504 341.823 94.8107 341.823 92.6H335.823C335.823 95.3173 336.175 97.8296 336.941 100.091L342.624 98.1649ZM341.823 92.6V77.192H335.823V92.6H341.823ZM341.823 77.192C341.823 76.7084 341.887 76.4106 341.944 76.2456C341.996 76.0963 342.042 76.0544 342.05 76.046L337.899 71.714C336.343 73.2055 335.823 75.2243 335.823 77.192H341.823ZM342.096 76.0013C342.148 75.9488 342.38 75.728 343.239 75.728V69.728C341.281 69.728 339.337 70.2752 337.853 71.7587L342.096 76.0013ZM343.239 75.728C343.699 75.728 343.981 75.7903 344.136 75.845C344.276 75.8942 344.32 75.9388 344.337 75.9557L348.669 71.8043C347.189 70.26 345.197 69.728 343.239 69.728V75.728ZM344.427 76.046C344.436 76.0544 344.481 76.0963 344.533 76.2456C344.591 76.4106 344.655 76.7084 344.655 77.192H350.655C350.655 75.2243 350.135 73.2055 348.578 71.714L344.427 76.046ZM344.655 77.192V92.696H350.655V77.192H344.655ZM344.655 92.696C344.655 95.5409 345.275 98.2281 347.025 100.235L351.548 96.2926C351.122 95.8039 350.655 94.7791 350.655 92.696H344.655ZM347.025 100.235C348.824 102.298 351.331 103.136 354.039 103.136V97.136C352.586 97.136 351.926 96.7259 351.548 96.2926L347.025 100.235ZM354.039 103.136C356.731 103.136 359.215 102.288 361.004 100.235L356.481 96.2926C356.095 96.7361 355.442 97.136 354.039 97.136V103.136ZM361.004 100.235C362.754 98.2281 363.375 95.5409 363.375 92.696H357.375C357.375 94.7791 356.907 95.8039 356.481 96.2926L361.004 100.235ZM363.375 92.696V77.192H357.375V92.696H363.375ZM363.375 77.192C363.375 76.697 363.438 76.3861 363.497 76.2087C363.551 76.0458 363.598 76.0028 363.6 76.0013L359.357 71.7587C357.86 73.2557 357.375 75.2576 357.375 77.192H363.375ZM363.6 76.0013C363.652 75.9488 363.884 75.728 364.743 75.728V69.728C362.785 69.728 360.841 70.2752 359.357 71.7587L363.6 76.0013ZM364.743 75.728C365.609 75.728 365.789 75.9515 365.793 75.9557L370.125 71.8043C368.657 70.2725 366.692 69.728 364.743 69.728V75.728ZM365.837 76.0013C365.839 76.0028 365.886 76.0458 365.941 76.2087C366 76.3861 366.063 76.697 366.063 77.192H372.063C372.063 75.2576 371.577 73.2557 370.08 71.7587L365.837 76.0013ZM366.063 77.192V92.6H372.063V77.192H366.063ZM366.063 92.6C366.063 95.5607 365.544 97.8268 364.667 99.532L370.002 102.276C371.43 99.5012 372.063 96.2313 372.063 92.6H366.063ZM364.659 99.5469C363.834 101.174 362.625 102.377 360.953 103.213L363.636 108.579C366.444 107.175 368.596 105.05 370.01 102.261L364.659 99.5469ZM360.984 103.197C359.259 104.035 356.984 104.528 354.039 104.528V110.528C357.621 110.528 360.85 109.933 363.605 108.595L360.984 103.197ZM378.521 105.848L376.357 107.926C376.385 107.955 376.414 107.984 376.443 108.012L378.521 105.848ZM378.521 74.36L380.642 76.4813V76.4813L378.521 74.36ZM399.881 74.264L398.687 77.016C398.707 77.025 398.728 77.0338 398.749 77.0423L399.881 74.264ZM403.433 86.984L401.111 85.0843C401.102 85.0949 401.094 85.1057 401.085 85.1164L403.433 86.984ZM398.825 89.864H395.825C395.825 90.7939 396.256 91.6712 396.992 92.2392C397.729 92.8073 398.687 93.0018 399.586 92.7658L398.825 89.864ZM398.825 89.096L399.358 86.1437C398.483 85.9858 397.583 86.2239 396.901 86.7939C396.219 87.3639 395.825 88.2071 395.825 89.096H398.825ZM404.153 91.88L401.886 93.8448C401.894 93.8543 401.902 93.8637 401.911 93.8731L404.153 91.88ZM402.857 104.456L404.735 106.795L404.739 106.792L402.857 104.456ZM385.817 100.52H382.817C382.817 102.177 384.16 103.52 385.817 103.52V100.52ZM396.521 99.608L398.432 101.921L398.441 101.913L396.521 99.608ZM396.521 93.992L394.61 96.3049C394.626 96.3181 394.642 96.3312 394.659 96.3441L396.521 93.992ZM385.817 93.08V90.08C384.16 90.08 382.817 91.4231 382.817 93.08H385.817ZM385.817 86.6H382.817C382.817 88.2569 384.16 89.6 385.817 89.6V86.6ZM395.609 85.736L393.809 83.336C393.792 83.3483 393.776 83.3608 393.76 83.3735L395.609 85.736ZM395.609 80.504L393.76 82.8665C393.798 82.8959 393.836 82.9245 393.875 82.9521L395.609 80.504ZM385.817 79.64V76.64C384.16 76.64 382.817 77.9831 382.817 79.64H385.817ZM381.977 104C380.966 104 380.665 103.748 380.598 103.684L376.443 108.012C377.977 109.484 379.98 110 381.977 110V104ZM380.685 103.77C380.61 103.692 380.369 103.398 380.369 102.44H374.369C374.369 104.426 374.896 106.404 376.357 107.926L380.685 103.77ZM380.369 102.44V77.72H374.369V102.44H380.369ZM380.369 77.72C380.369 76.7533 380.613 76.5102 380.642 76.4813L376.4 72.2387C374.892 73.7458 374.369 75.7427 374.369 77.72H380.369ZM380.642 76.4813C380.713 76.4103 380.998 76.16 381.977 76.16V70.16C379.948 70.16 377.929 70.7097 376.4 72.2387L380.642 76.4813ZM381.977 76.16H393.689V70.16H381.977V76.16ZM393.689 76.16C395.833 76.16 397.466 76.4865 398.687 77.016L401.075 71.512C398.903 70.5695 396.408 70.16 393.689 70.16V76.16ZM398.749 77.0423C400.029 77.5636 400.83 78.2342 401.339 78.9799L406.294 75.5961C405.012 73.7178 403.189 72.3724 401.013 71.4857L398.749 77.0423ZM401.339 78.9799C401.859 79.7401 402.161 80.6719 402.161 81.896H408.161C408.161 79.6001 407.567 77.4599 406.294 75.5961L401.339 78.9799ZM402.161 81.896C402.161 83.2546 401.784 84.262 401.111 85.0843L405.755 88.8837C407.386 86.89 408.161 84.5054 408.161 81.896H402.161ZM401.085 85.1164C400.417 85.9563 399.469 86.5936 398.064 86.9622L399.586 92.7658C402.085 92.1104 404.209 90.8277 405.781 88.8516L401.085 85.1164ZM401.825 89.864V89.096H395.825V89.864H401.825ZM398.292 92.0483C400.081 92.3713 401.181 93.0321 401.886 93.8448L406.42 89.9152C404.628 87.8479 402.177 86.6527 399.358 86.1437L398.292 92.0483ZM401.911 93.8731C402.624 94.676 403.073 95.7678 403.073 97.4H409.073C409.073 94.5522 408.241 91.964 406.395 89.8869L401.911 93.8731ZM403.073 97.4C403.073 99.5524 402.349 101.012 400.974 102.12L404.739 106.792C407.653 104.444 409.073 101.2 409.073 97.4H403.073ZM400.978 102.117C399.562 103.254 397.409 104 394.169 104V110C398.288 110 401.927 109.05 404.735 106.795L400.978 102.117ZM394.169 104H381.977V110H394.169V104ZM385.817 103.52H392.969V97.52H385.817V103.52ZM392.969 103.52C394.848 103.52 396.891 103.194 398.432 101.921L394.61 97.2951C394.663 97.2511 394.615 97.3142 394.335 97.3862C394.052 97.4588 393.612 97.52 392.969 97.52V103.52ZM398.441 101.913C400.059 100.565 400.673 98.6735 400.673 96.776H394.673C394.673 97.097 394.623 97.2474 394.606 97.2896C394.598 97.3099 394.594 97.3126 394.599 97.3065C394.603 97.3001 394.606 97.2985 394.6 97.3033L398.441 101.913ZM400.673 96.776C400.673 94.8855 400.06 92.9677 398.383 91.6399L394.659 96.3441C394.653 96.3393 394.639 96.3266 394.625 96.308C394.611 96.2897 394.609 96.2807 394.613 96.2911C394.623 96.3147 394.673 96.4532 394.673 96.776H400.673ZM398.432 91.6791C396.891 90.4063 394.848 90.08 392.969 90.08V96.08C393.612 96.08 394.052 96.1412 394.335 96.2137C394.615 96.2858 394.663 96.3489 394.61 96.3049L398.432 91.6791ZM392.969 90.08H385.817V96.08H392.969V90.08ZM382.817 93.08V100.52H388.817V93.08H382.817ZM385.817 89.6H392.105V83.6H385.817V89.6ZM392.105 89.6C393.944 89.6 395.933 89.2919 397.458 88.0985L393.76 83.3735C393.807 83.3367 393.749 83.4007 393.463 83.4712C393.176 83.5419 392.737 83.6 392.105 83.6V89.6ZM397.409 88.136C399.109 86.8608 399.761 84.9788 399.761 83.096H393.761C393.761 83.3687 393.716 83.4599 393.723 83.4442C393.727 83.4356 393.739 83.4129 393.76 83.3856C393.782 83.3582 393.801 83.3417 393.809 83.336L397.409 88.136ZM399.761 83.096C399.761 81.2198 399.109 79.3071 397.343 78.0559L393.875 82.9521C393.855 82.9379 393.823 82.9112 393.791 82.8717C393.759 82.8323 393.74 82.7975 393.731 82.7784C393.716 82.743 393.761 82.8211 393.761 83.096H399.761ZM397.458 78.1415C395.933 76.9481 393.944 76.64 392.105 76.64V82.64C392.737 82.64 393.176 82.6981 393.463 82.7688C393.749 82.8393 393.807 82.9033 393.76 82.8665L397.458 78.1415ZM392.105 76.64H385.817V82.64H392.105V76.64ZM382.817 79.64V86.6H388.817V79.64H382.817Z" fill="white" mask="url(#path-42-outside-1_140_4380)"/>
<mask id="path-44-outside-2_140_4380" maskUnits="userSpaceOnUse" x="155" y="12" width="253" height="42" fill="black">
<rect fill="white" x="155" y="12" width="253" height="42"/>
<path d="M162.481 50.432C161.265 50.432 160.337 50.096 159.697 49.424C159.057 48.752 158.737 47.808 158.737 46.592V19.952C158.737 18.704 159.057 17.76 159.697 17.12C160.369 16.48 161.313 16.16 162.529 16.16H174.193C177.969 16.16 180.881 17.072 182.929 18.896C184.977 20.72 186.001 23.264 186.001 26.528C186.001 28.64 185.537 30.464 184.609 32C183.681 33.536 182.337 34.72 180.577 35.552C178.849 36.384 176.721 36.8 174.193 36.8L174.577 35.984H176.545C177.889 35.984 179.057 36.32 180.049 36.992C181.073 37.632 181.953 38.624 182.689 39.968L185.665 45.488C186.113 46.288 186.321 47.072 186.289 47.84C186.257 48.608 185.969 49.232 185.425 49.712C184.881 50.192 184.081 50.432 183.025 50.432C181.969 50.432 181.105 50.208 180.433 49.76C179.793 49.312 179.217 48.624 178.705 47.696L174.097 39.2C173.617 38.304 173.025 37.696 172.321 37.376C171.649 37.056 170.817 36.896 169.825 36.896H166.177V46.592C166.177 47.808 165.857 48.752 165.217 49.424C164.609 50.096 163.697 50.432 162.481 50.432ZM166.177 31.52H172.849C174.833 31.52 176.321 31.12 177.313 30.32C178.337 29.52 178.849 28.32 178.849 26.72C178.849 25.152 178.337 23.968 177.313 23.168C176.321 22.368 174.833 21.968 172.849 21.968H166.177V31.52ZM193.902 50.432C193.006 50.432 192.27 50.224 191.694 49.808C191.15 49.392 190.798 48.832 190.638 48.128C190.51 47.424 190.654 46.64 191.07 45.776L203.358 18.848C203.87 17.76 204.478 16.976 205.182 16.496C205.886 15.984 206.702 15.728 207.63 15.728C208.558 15.728 209.374 15.984 210.078 16.496C210.782 16.976 211.374 17.76 211.854 18.848L224.238 45.776C224.654 46.64 224.798 47.44 224.67 48.176C224.574 48.88 224.254 49.44 223.71 49.856C223.166 50.24 222.462 50.432 221.598 50.432C220.51 50.432 219.662 50.176 219.054 49.664C218.478 49.152 217.966 48.352 217.518 47.264L214.638 40.592L217.614 42.656H197.598L200.574 40.592L197.742 47.264C197.262 48.384 196.75 49.2 196.206 49.712C195.694 50.192 194.926 50.432 193.902 50.432ZM207.534 24.08L201.39 38.72L200.094 36.848H215.118L213.822 38.72L207.63 24.08H207.534ZM246.142 50.528C242.494 50.528 239.374 49.808 236.782 48.368C234.19 46.928 232.19 44.912 230.782 42.32C229.406 39.696 228.718 36.608 228.718 33.056C228.718 30.4 229.102 28.016 229.87 25.904C230.67 23.76 231.822 21.936 233.326 20.432C234.83 18.896 236.654 17.712 238.798 16.88C240.974 16.048 243.422 15.632 246.142 15.632C247.742 15.632 249.358 15.84 250.99 16.256C252.654 16.64 254.094 17.2 255.31 17.936C256.11 18.384 256.654 18.944 256.942 19.616C257.23 20.288 257.31 20.96 257.182 21.632C257.086 22.304 256.814 22.88 256.366 23.36C255.95 23.84 255.422 24.144 254.782 24.272C254.142 24.4 253.422 24.256 252.622 23.84C251.662 23.264 250.654 22.848 249.598 22.592C248.542 22.336 247.47 22.208 246.382 22.208C244.238 22.208 242.43 22.64 240.958 23.504C239.518 24.336 238.43 25.552 237.694 27.152C236.958 28.752 236.59 30.72 236.59 33.056C236.59 35.36 236.958 37.328 237.694 38.96C238.43 40.592 239.518 41.84 240.958 42.704C242.43 43.536 244.238 43.952 246.382 43.952C247.406 43.952 248.446 43.824 249.502 43.568C250.59 43.312 251.63 42.912 252.622 42.368C253.454 41.952 254.19 41.808 254.83 41.936C255.502 42.032 256.046 42.32 256.462 42.8C256.91 43.248 257.182 43.792 257.278 44.432C257.406 45.072 257.342 45.712 257.086 46.352C256.83 46.992 256.35 47.536 255.646 47.984C254.462 48.784 253.006 49.408 251.278 49.856C249.55 50.304 247.838 50.528 246.142 50.528ZM279.27 50.528C275.622 50.528 272.502 49.808 269.91 48.368C267.318 46.928 265.318 44.912 263.91 42.32C262.534 39.696 261.846 36.608 261.846 33.056C261.846 30.4 262.23 28.016 262.998 25.904C263.798 23.76 264.95 21.936 266.454 20.432C267.958 18.896 269.782 17.712 271.926 16.88C274.102 16.048 276.55 15.632 279.27 15.632C280.87 15.632 282.486 15.84 284.118 16.256C285.782 16.64 287.222 17.2 288.438 17.936C289.238 18.384 289.782 18.944 290.07 19.616C290.358 20.288 290.438 20.96 290.31 21.632C290.214 22.304 289.942 22.88 289.494 23.36C289.078 23.84 288.55 24.144 287.91 24.272C287.27 24.4 286.55 24.256 285.75 23.84C284.79 23.264 283.782 22.848 282.726 22.592C281.67 22.336 280.598 22.208 279.51 22.208C277.366 22.208 275.558 22.64 274.086 23.504C272.646 24.336 271.558 25.552 270.822 27.152C270.086 28.752 269.718 30.72 269.718 33.056C269.718 35.36 270.086 37.328 270.822 38.96C271.558 40.592 272.646 41.84 274.086 42.704C275.558 43.536 277.366 43.952 279.51 43.952C280.534 43.952 281.574 43.824 282.63 43.568C283.718 43.312 284.758 42.912 285.75 42.368C286.582 41.952 287.318 41.808 287.958 41.936C288.63 42.032 289.174 42.32 289.59 42.8C290.038 43.248 290.31 43.792 290.406 44.432C290.534 45.072 290.47 45.712 290.214 46.352C289.958 46.992 289.478 47.536 288.774 47.984C287.59 48.784 286.134 49.408 284.406 49.856C282.678 50.304 280.966 50.528 279.27 50.528ZM311.677 50.528C308.349 50.528 305.421 49.808 302.893 48.368C300.397 46.896 298.445 44.848 297.037 42.224C295.661 39.6 294.973 36.544 294.973 33.056C294.973 30.4 295.357 28.016 296.125 25.904C296.925 23.76 298.061 21.936 299.533 20.432C301.005 18.896 302.765 17.712 304.813 16.88C306.893 16.048 309.181 15.632 311.677 15.632C315.069 15.632 318.013 16.352 320.509 17.792C323.005 19.232 324.941 21.264 326.317 23.888C327.725 26.48 328.429 29.52 328.429 33.008C328.429 35.664 328.029 38.064 327.229 40.208C326.429 42.352 325.293 44.192 323.821 45.728C322.349 47.264 320.589 48.448 318.541 49.28C316.493 50.112 314.205 50.528 311.677 50.528ZM311.677 44.192C313.565 44.192 315.165 43.76 316.477 42.896C317.821 42 318.845 40.72 319.549 39.056C320.285 37.36 320.653 35.36 320.653 33.056C320.653 29.536 319.869 26.816 318.301 24.896C316.733 22.944 314.525 21.968 311.677 21.968C309.821 21.968 308.221 22.4 306.877 23.264C305.533 24.128 304.509 25.392 303.805 27.056C303.101 28.72 302.749 30.72 302.749 33.056C302.749 36.544 303.533 39.28 305.101 41.264C306.669 43.216 308.861 44.192 311.677 44.192ZM351.32 50.528C347.992 50.528 345.064 49.808 342.536 48.368C340.04 46.896 338.088 44.848 336.68 42.224C335.304 39.6 334.616 36.544 334.616 33.056C334.616 30.4 335 28.016 335.768 25.904C336.568 23.76 337.704 21.936 339.176 20.432C340.648 18.896 342.408 17.712 344.456 16.88C346.536 16.048 348.824 15.632 351.32 15.632C354.712 15.632 357.656 16.352 360.152 17.792C362.648 19.232 364.584 21.264 365.96 23.888C367.368 26.48 368.072 29.52 368.072 33.008C368.072 35.664 367.672 38.064 366.872 40.208C366.072 42.352 364.936 44.192 363.464 45.728C361.992 47.264 360.232 48.448 358.184 49.28C356.136 50.112 353.848 50.528 351.32 50.528ZM351.32 44.192C353.208 44.192 354.808 43.76 356.12 42.896C357.464 42 358.488 40.72 359.192 39.056C359.928 37.36 360.296 35.36 360.296 33.056C360.296 29.536 359.512 26.816 357.944 24.896C356.376 22.944 354.168 21.968 351.32 21.968C349.464 21.968 347.864 22.4 346.52 23.264C345.176 24.128 344.152 25.392 343.448 27.056C342.744 28.72 342.392 30.72 342.392 33.056C342.392 36.544 343.176 39.28 344.744 41.264C346.312 43.216 348.504 44.192 351.32 44.192ZM378.723 50.432C377.603 50.432 376.739 50.128 376.131 49.52C375.555 48.88 375.267 47.984 375.267 46.832V19.472C375.267 18.256 375.555 17.328 376.131 16.688C376.739 16.048 377.539 15.728 378.531 15.728C379.395 15.728 380.051 15.904 380.499 16.256C380.979 16.576 381.523 17.12 382.131 17.888L398.979 39.344H397.683V19.28C397.683 18.16 397.971 17.296 398.547 16.688C399.155 16.048 400.019 15.728 401.139 15.728C402.259 15.728 403.107 16.048 403.683 16.688C404.291 17.296 404.595 18.16 404.595 19.28V46.976C404.595 48.032 404.323 48.88 403.779 49.52C403.235 50.128 402.499 50.432 401.571 50.432C400.675 50.432 399.955 50.256 399.411 49.904C398.899 49.552 398.339 48.992 397.731 48.224L380.931 26.768H382.179V46.832C382.179 47.984 381.891 48.88 381.315 49.52C380.739 50.128 379.875 50.432 378.723 50.432Z"/>
</mask>
<path d="M162.481 50.432C161.265 50.432 160.337 50.096 159.697 49.424C159.057 48.752 158.737 47.808 158.737 46.592V19.952C158.737 18.704 159.057 17.76 159.697 17.12C160.369 16.48 161.313 16.16 162.529 16.16H174.193C177.969 16.16 180.881 17.072 182.929 18.896C184.977 20.72 186.001 23.264 186.001 26.528C186.001 28.64 185.537 30.464 184.609 32C183.681 33.536 182.337 34.72 180.577 35.552C178.849 36.384 176.721 36.8 174.193 36.8L174.577 35.984H176.545C177.889 35.984 179.057 36.32 180.049 36.992C181.073 37.632 181.953 38.624 182.689 39.968L185.665 45.488C186.113 46.288 186.321 47.072 186.289 47.84C186.257 48.608 185.969 49.232 185.425 49.712C184.881 50.192 184.081 50.432 183.025 50.432C181.969 50.432 181.105 50.208 180.433 49.76C179.793 49.312 179.217 48.624 178.705 47.696L174.097 39.2C173.617 38.304 173.025 37.696 172.321 37.376C171.649 37.056 170.817 36.896 169.825 36.896H166.177V46.592C166.177 47.808 165.857 48.752 165.217 49.424C164.609 50.096 163.697 50.432 162.481 50.432ZM166.177 31.52H172.849C174.833 31.52 176.321 31.12 177.313 30.32C178.337 29.52 178.849 28.32 178.849 26.72C178.849 25.152 178.337 23.968 177.313 23.168C176.321 22.368 174.833 21.968 172.849 21.968H166.177V31.52ZM193.902 50.432C193.006 50.432 192.27 50.224 191.694 49.808C191.15 49.392 190.798 48.832 190.638 48.128C190.51 47.424 190.654 46.64 191.07 45.776L203.358 18.848C203.87 17.76 204.478 16.976 205.182 16.496C205.886 15.984 206.702 15.728 207.63 15.728C208.558 15.728 209.374 15.984 210.078 16.496C210.782 16.976 211.374 17.76 211.854 18.848L224.238 45.776C224.654 46.64 224.798 47.44 224.67 48.176C224.574 48.88 224.254 49.44 223.71 49.856C223.166 50.24 222.462 50.432 221.598 50.432C220.51 50.432 219.662 50.176 219.054 49.664C218.478 49.152 217.966 48.352 217.518 47.264L214.638 40.592L217.614 42.656H197.598L200.574 40.592L197.742 47.264C197.262 48.384 196.75 49.2 196.206 49.712C195.694 50.192 194.926 50.432 193.902 50.432ZM207.534 24.08L201.39 38.72L200.094 36.848H215.118L213.822 38.72L207.63 24.08H207.534ZM246.142 50.528C242.494 50.528 239.374 49.808 236.782 48.368C234.19 46.928 232.19 44.912 230.782 42.32C229.406 39.696 228.718 36.608 228.718 33.056C228.718 30.4 229.102 28.016 229.87 25.904C230.67 23.76 231.822 21.936 233.326 20.432C234.83 18.896 236.654 17.712 238.798 16.88C240.974 16.048 243.422 15.632 246.142 15.632C247.742 15.632 249.358 15.84 250.99 16.256C252.654 16.64 254.094 17.2 255.31 17.936C256.11 18.384 256.654 18.944 256.942 19.616C257.23 20.288 257.31 20.96 257.182 21.632C257.086 22.304 256.814 22.88 256.366 23.36C255.95 23.84 255.422 24.144 254.782 24.272C254.142 24.4 253.422 24.256 252.622 23.84C251.662 23.264 250.654 22.848 249.598 22.592C248.542 22.336 247.47 22.208 246.382 22.208C244.238 22.208 242.43 22.64 240.958 23.504C239.518 24.336 238.43 25.552 237.694 27.152C236.958 28.752 236.59 30.72 236.59 33.056C236.59 35.36 236.958 37.328 237.694 38.96C238.43 40.592 239.518 41.84 240.958 42.704C242.43 43.536 244.238 43.952 246.382 43.952C247.406 43.952 248.446 43.824 249.502 43.568C250.59 43.312 251.63 42.912 252.622 42.368C253.454 41.952 254.19 41.808 254.83 41.936C255.502 42.032 256.046 42.32 256.462 42.8C256.91 43.248 257.182 43.792 257.278 44.432C257.406 45.072 257.342 45.712 257.086 46.352C256.83 46.992 256.35 47.536 255.646 47.984C254.462 48.784 253.006 49.408 251.278 49.856C249.55 50.304 247.838 50.528 246.142 50.528ZM279.27 50.528C275.622 50.528 272.502 49.808 269.91 48.368C267.318 46.928 265.318 44.912 263.91 42.32C262.534 39.696 261.846 36.608 261.846 33.056C261.846 30.4 262.23 28.016 262.998 25.904C263.798 23.76 264.95 21.936 266.454 20.432C267.958 18.896 269.782 17.712 271.926 16.88C274.102 16.048 276.55 15.632 279.27 15.632C280.87 15.632 282.486 15.84 284.118 16.256C285.782 16.64 287.222 17.2 288.438 17.936C289.238 18.384 289.782 18.944 290.07 19.616C290.358 20.288 290.438 20.96 290.31 21.632C290.214 22.304 289.942 22.88 289.494 23.36C289.078 23.84 288.55 24.144 287.91 24.272C287.27 24.4 286.55 24.256 285.75 23.84C284.79 23.264 283.782 22.848 282.726 22.592C281.67 22.336 280.598 22.208 279.51 22.208C277.366 22.208 275.558 22.64 274.086 23.504C272.646 24.336 271.558 25.552 270.822 27.152C270.086 28.752 269.718 30.72 269.718 33.056C269.718 35.36 270.086 37.328 270.822 38.96C271.558 40.592 272.646 41.84 274.086 42.704C275.558 43.536 277.366 43.952 279.51 43.952C280.534 43.952 281.574 43.824 282.63 43.568C283.718 43.312 284.758 42.912 285.75 42.368C286.582 41.952 287.318 41.808 287.958 41.936C288.63 42.032 289.174 42.32 289.59 42.8C290.038 43.248 290.31 43.792 290.406 44.432C290.534 45.072 290.47 45.712 290.214 46.352C289.958 46.992 289.478 47.536 288.774 47.984C287.59 48.784 286.134 49.408 284.406 49.856C282.678 50.304 280.966 50.528 279.27 50.528ZM311.677 50.528C308.349 50.528 305.421 49.808 302.893 48.368C300.397 46.896 298.445 44.848 297.037 42.224C295.661 39.6 294.973 36.544 294.973 33.056C294.973 30.4 295.357 28.016 296.125 25.904C296.925 23.76 298.061 21.936 299.533 20.432C301.005 18.896 302.765 17.712 304.813 16.88C306.893 16.048 309.181 15.632 311.677 15.632C315.069 15.632 318.013 16.352 320.509 17.792C323.005 19.232 324.941 21.264 326.317 23.888C327.725 26.48 328.429 29.52 328.429 33.008C328.429 35.664 328.029 38.064 327.229 40.208C326.429 42.352 325.293 44.192 323.821 45.728C322.349 47.264 320.589 48.448 318.541 49.28C316.493 50.112 314.205 50.528 311.677 50.528ZM311.677 44.192C313.565 44.192 315.165 43.76 316.477 42.896C317.821 42 318.845 40.72 319.549 39.056C320.285 37.36 320.653 35.36 320.653 33.056C320.653 29.536 319.869 26.816 318.301 24.896C316.733 22.944 314.525 21.968 311.677 21.968C309.821 21.968 308.221 22.4 306.877 23.264C305.533 24.128 304.509 25.392 303.805 27.056C303.101 28.72 302.749 30.72 302.749 33.056C302.749 36.544 303.533 39.28 305.101 41.264C306.669 43.216 308.861 44.192 311.677 44.192ZM351.32 50.528C347.992 50.528 345.064 49.808 342.536 48.368C340.04 46.896 338.088 44.848 336.68 42.224C335.304 39.6 334.616 36.544 334.616 33.056C334.616 30.4 335 28.016 335.768 25.904C336.568 23.76 337.704 21.936 339.176 20.432C340.648 18.896 342.408 17.712 344.456 16.88C346.536 16.048 348.824 15.632 351.32 15.632C354.712 15.632 357.656 16.352 360.152 17.792C362.648 19.232 364.584 21.264 365.96 23.888C367.368 26.48 368.072 29.52 368.072 33.008C368.072 35.664 367.672 38.064 366.872 40.208C366.072 42.352 364.936 44.192 363.464 45.728C361.992 47.264 360.232 48.448 358.184 49.28C356.136 50.112 353.848 50.528 351.32 50.528ZM351.32 44.192C353.208 44.192 354.808 43.76 356.12 42.896C357.464 42 358.488 40.72 359.192 39.056C359.928 37.36 360.296 35.36 360.296 33.056C360.296 29.536 359.512 26.816 357.944 24.896C356.376 22.944 354.168 21.968 351.32 21.968C349.464 21.968 347.864 22.4 346.52 23.264C345.176 24.128 344.152 25.392 343.448 27.056C342.744 28.72 342.392 30.72 342.392 33.056C342.392 36.544 343.176 39.28 344.744 41.264C346.312 43.216 348.504 44.192 351.32 44.192ZM378.723 50.432C377.603 50.432 376.739 50.128 376.131 49.52C375.555 48.88 375.267 47.984 375.267 46.832V19.472C375.267 18.256 375.555 17.328 376.131 16.688C376.739 16.048 377.539 15.728 378.531 15.728C379.395 15.728 380.051 15.904 380.499 16.256C380.979 16.576 381.523 17.12 382.131 17.888L398.979 39.344H397.683V19.28C397.683 18.16 397.971 17.296 398.547 16.688C399.155 16.048 400.019 15.728 401.139 15.728C402.259 15.728 403.107 16.048 403.683 16.688C404.291 17.296 404.595 18.16 404.595 19.28V46.976C404.595 48.032 404.323 48.88 403.779 49.52C403.235 50.128 402.499 50.432 401.571 50.432C400.675 50.432 399.955 50.256 399.411 49.904C398.899 49.552 398.339 48.992 397.731 48.224L380.931 26.768H382.179V46.832C382.179 47.984 381.891 48.88 381.315 49.52C380.739 50.128 379.875 50.432 378.723 50.432Z" fill="#00000A"/>
<path d="M159.697 49.424L161.869 47.355L159.697 49.424ZM159.697 17.12L157.628 14.9476C157.61 14.9644 157.593 14.9814 157.575 14.9987L159.697 17.12ZM182.929 18.896L180.933 21.1363H180.933L182.929 18.896ZM184.609 32L182.041 30.4487L182.041 30.4487L184.609 32ZM180.577 35.552L179.295 32.8398C179.288 32.8428 179.282 32.8459 179.275 32.849L180.577 35.552ZM174.193 36.8L171.478 35.5226C171.041 36.4519 171.109 37.5403 171.66 38.4075C172.21 39.2746 173.166 39.8 174.193 39.8V36.8ZM174.577 35.984V32.984C173.415 32.984 172.357 33.6551 171.862 34.7066L174.577 35.984ZM180.049 36.992L178.366 39.4758C178.397 39.4964 178.428 39.5165 178.459 39.536L180.049 36.992ZM182.689 39.968L185.329 38.5443C185.326 38.5386 185.323 38.5328 185.32 38.5271L182.689 39.968ZM185.665 45.488L183.024 46.9117C183.032 46.9258 183.039 46.9398 183.047 46.9538L185.665 45.488ZM186.289 47.84L189.286 47.9649L186.289 47.84ZM185.425 49.712L187.41 51.9615L185.425 49.712ZM180.433 49.76L178.712 52.2177C178.731 52.2307 178.75 52.2435 178.769 52.2562L180.433 49.76ZM178.705 47.696L176.068 49.1263C176.071 49.1326 176.075 49.1389 176.078 49.1452L178.705 47.696ZM174.097 39.2L171.452 40.6167C171.455 40.6212 171.457 40.6258 171.46 40.6303L174.097 39.2ZM172.321 37.376L171.031 40.0846C171.047 40.0922 171.063 40.0997 171.079 40.1071L172.321 37.376ZM166.177 36.896V33.896C164.52 33.896 163.177 35.2391 163.177 36.896H166.177ZM165.217 49.424L163.044 47.355C163.027 47.3736 163.009 47.3923 162.992 47.4113L165.217 49.424ZM166.177 31.52H163.177C163.177 33.1769 164.52 34.52 166.177 34.52V31.52ZM177.313 30.32L175.466 27.9559C175.454 27.9654 175.442 27.9751 175.429 27.9848L177.313 30.32ZM177.313 23.168L175.429 25.5032C175.442 25.5129 175.454 25.5226 175.466 25.5321L177.313 23.168ZM166.177 21.968V18.968C164.52 18.968 163.177 20.3111 163.177 21.968H166.177ZM162.481 47.432C162.143 47.432 161.965 47.3847 161.894 47.3592C161.838 47.339 161.849 47.3335 161.869 47.355L157.524 51.493C158.891 52.9285 160.711 53.432 162.481 53.432V47.432ZM161.869 47.355C161.866 47.3522 161.862 47.3477 161.856 47.3368C161.849 47.3253 161.835 47.2985 161.818 47.2489C161.783 47.1467 161.737 46.9419 161.737 46.592H155.737C155.737 48.3317 156.204 50.107 157.524 51.493L161.869 47.355ZM161.737 46.592V19.952H155.737V46.592H161.737ZM161.737 19.952C161.737 19.5766 161.786 19.366 161.818 19.2711C161.845 19.1905 161.856 19.2037 161.818 19.2413L157.575 14.9987C156.187 16.3868 155.737 18.216 155.737 19.952H161.737ZM161.766 19.2924C161.769 19.2897 161.773 19.2857 161.784 19.2792C161.795 19.2724 161.822 19.258 161.872 19.2412C161.974 19.2066 162.179 19.16 162.529 19.16V13.16C160.789 13.16 159.014 13.6276 157.628 14.9476L161.766 19.2924ZM162.529 19.16H174.193V13.16H162.529V19.16ZM174.193 19.16C177.511 19.16 179.612 19.9596 180.933 21.1363L184.924 16.6557C182.149 14.1844 178.426 13.16 174.193 13.16V19.16ZM180.933 21.1363C182.22 22.2825 183.001 23.9419 183.001 26.528H189.001C189.001 22.5861 187.733 19.1575 184.924 16.6557L180.933 21.1363ZM183.001 26.528C183.001 28.191 182.64 29.4579 182.041 30.4487L187.176 33.5513C188.434 31.4701 189.001 29.089 189.001 26.528H183.001ZM182.041 30.4487C181.444 31.4367 180.569 32.2376 179.295 32.8398L181.859 38.2642C184.105 37.2024 185.917 35.6353 187.176 33.5513L182.041 30.4487ZM179.275 32.849C178.061 33.4336 176.407 33.8 174.193 33.8V39.8C177.034 39.8 179.636 39.3344 181.878 38.255L179.275 32.849ZM176.907 38.0774L177.291 37.2614L171.862 34.7066L171.478 35.5226L176.907 38.0774ZM174.577 38.984H176.545V32.984H174.577V38.984ZM176.545 38.984C177.365 38.984 177.93 39.1803 178.366 39.4758L181.731 34.5082C180.183 33.4597 178.413 32.984 176.545 32.984V38.984ZM178.459 39.536C178.945 39.8398 179.503 40.3968 180.057 41.4089L185.32 38.5271C184.402 36.8512 183.201 35.4242 181.639 34.448L178.459 39.536ZM180.048 41.3917L183.024 46.9117L188.305 44.0643L185.329 38.5443L180.048 41.3917ZM183.047 46.9538C183.277 47.3633 183.296 47.6012 183.291 47.7151L189.286 47.9649C189.345 46.5428 188.949 45.2127 188.282 44.0222L183.047 46.9538ZM183.291 47.7151C183.29 47.7538 183.286 47.7106 183.325 47.6268C183.343 47.5878 183.365 47.5511 183.389 47.5194C183.412 47.4882 183.432 47.4696 183.44 47.4625L187.41 51.9615C188.606 50.9059 189.222 49.4951 189.286 47.9649L183.291 47.7151ZM183.44 47.4625C183.538 47.3756 183.602 47.3642 183.555 47.3785C183.497 47.3959 183.334 47.432 183.025 47.432V53.432C184.485 53.432 186.114 53.1048 187.41 51.9615L183.44 47.4625ZM183.025 47.432C182.381 47.432 182.145 47.2961 182.097 47.2638L178.769 52.2562C180.064 53.1199 181.556 53.432 183.025 53.432V47.432ZM182.153 47.3023C181.997 47.1933 181.697 46.9096 181.331 46.2468L176.078 49.1452C176.736 50.3384 177.588 51.4307 178.712 52.2177L182.153 47.3023ZM181.342 46.2657L176.734 37.7697L171.46 40.6303L176.068 49.1263L181.342 46.2657ZM176.741 37.7833C176.048 36.4896 175.03 35.312 173.562 34.6449L171.079 40.1071C171.02 40.08 171.185 40.1184 171.452 40.6167L176.741 37.7833ZM173.611 34.6674C172.425 34.1028 171.121 33.896 169.825 33.896V39.896C170.512 39.896 170.873 40.0092 171.031 40.0846L173.611 34.6674ZM169.825 33.896H166.177V39.896H169.825V33.896ZM163.177 36.896V46.592H169.177V36.896H163.177ZM163.177 46.592C163.177 46.9419 163.13 47.1467 163.096 47.2489C163.079 47.2985 163.064 47.3253 163.058 47.3368C163.051 47.3477 163.047 47.3522 163.044 47.355L167.389 51.493C168.709 50.107 169.177 48.3317 169.177 46.592H163.177ZM162.992 47.4113C163.037 47.362 163.075 47.3521 163.04 47.365C162.987 47.3842 162.82 47.432 162.481 47.432V53.432C164.241 53.432 166.089 52.9318 167.441 51.4367L162.992 47.4113ZM166.177 34.52H172.849V28.52H166.177V34.52ZM172.849 34.52C175.158 34.52 177.445 34.0673 179.196 32.6552L175.429 27.9848C175.196 28.1727 174.508 28.52 172.849 28.52V34.52ZM179.16 32.6841C181.079 31.1843 181.849 29.0071 181.849 26.72H175.849C175.849 27.6329 175.594 27.8557 175.466 27.9559L179.16 32.6841ZM181.849 26.72C181.849 24.4411 181.064 22.2916 179.16 20.8039L175.466 25.5321C175.61 25.6444 175.849 25.8629 175.849 26.72H181.849ZM179.196 20.8328C177.445 19.4207 175.158 18.968 172.849 18.968V24.968C174.508 24.968 175.196 25.3153 175.429 25.5032L179.196 20.8328ZM172.849 18.968H166.177V24.968H172.849V18.968ZM163.177 21.968V31.52H169.177V21.968H163.177ZM191.694 49.808L189.872 52.1911C189.894 52.2077 189.916 52.224 189.938 52.24L191.694 49.808ZM190.638 48.128L187.687 48.6647C187.695 48.7076 187.703 48.7503 187.713 48.7929L190.638 48.128ZM191.07 45.776L193.773 47.0774C193.782 47.0589 193.791 47.0402 193.8 47.0214L191.07 45.776ZM203.358 18.848L200.644 17.5706C200.639 17.5812 200.634 17.5919 200.629 17.6026L203.358 18.848ZM205.182 16.496L206.872 18.9747C206.897 18.9576 206.922 18.9401 206.947 18.9222L205.182 16.496ZM210.078 16.496L208.314 18.9222C208.338 18.9401 208.363 18.9576 208.388 18.9747L210.078 16.496ZM211.854 18.848L209.11 20.0589C209.116 20.0732 209.122 20.0873 209.129 20.1015L211.854 18.848ZM224.238 45.776L221.513 47.0295C221.52 47.0455 221.528 47.0615 221.535 47.0774L224.238 45.776ZM224.67 48.176L221.715 47.662C221.708 47.6981 221.703 47.7343 221.698 47.7707L224.67 48.176ZM223.71 49.856L225.44 52.3069C225.472 52.2849 225.502 52.2623 225.533 52.2391L223.71 49.856ZM219.054 49.664L217.061 51.9062C217.081 51.924 217.102 51.9415 217.122 51.9587L219.054 49.664ZM217.518 47.264L220.292 46.1217C220.286 46.1061 220.279 46.0906 220.273 46.0751L217.518 47.264ZM214.638 40.592L216.348 38.1269C215.248 37.3636 213.774 37.4222 212.738 38.2706C211.702 39.1189 211.353 40.5513 211.884 41.7809L214.638 40.592ZM217.614 42.656V45.656C218.926 45.656 220.086 44.8037 220.478 43.5517C220.869 42.2997 220.402 40.9385 219.324 40.1909L217.614 42.656ZM197.598 42.656L195.889 40.1909C194.811 40.9385 194.344 42.2997 194.735 43.5517C195.127 44.8037 196.287 45.656 197.598 45.656V42.656ZM200.574 40.592L203.336 41.7642C203.858 40.5345 203.504 39.1078 202.468 38.2648C201.431 37.4218 199.962 37.3655 198.865 38.1269L200.574 40.592ZM197.742 47.264L200.5 48.4458L200.504 48.4362L197.742 47.264ZM196.206 49.712L198.258 51.9006L198.262 51.8966L196.206 49.712ZM207.534 24.08V21.08C206.326 21.08 205.236 21.8049 204.768 22.9191L207.534 24.08ZM201.39 38.72L198.924 40.4276C199.547 41.3284 200.612 41.8176 201.702 41.7038C202.792 41.5899 203.733 40.8911 204.157 39.8809L201.39 38.72ZM200.094 36.848V33.848C198.979 33.848 197.955 34.4673 197.437 35.4557C196.919 36.4441 196.993 37.6382 197.628 38.5556L200.094 36.848ZM215.118 36.848L217.585 38.5556C218.22 37.6382 218.294 36.4441 217.776 35.4557C217.258 34.4673 216.234 33.848 215.118 33.848V36.848ZM213.822 38.72L211.059 39.8886C211.486 40.8963 212.426 41.592 213.515 41.7042C214.603 41.8164 215.666 41.3272 216.289 40.4276L213.822 38.72ZM207.63 24.08L210.393 22.9114C209.924 21.8013 208.836 21.08 207.63 21.08V24.08ZM193.902 47.432C193.684 47.432 193.556 47.4065 193.494 47.3891C193.438 47.3732 193.433 47.3633 193.451 47.376L189.938 52.24C191.145 53.1118 192.542 53.432 193.902 53.432V47.432ZM193.517 47.4249C193.515 47.4239 193.522 47.4287 193.532 47.4402C193.543 47.4518 193.553 47.4655 193.562 47.4795C193.566 47.4861 193.57 47.4918 193.572 47.4961C193.574 47.5004 193.575 47.5028 193.575 47.5027C193.575 47.5026 193.574 47.4996 193.572 47.4934C193.57 47.487 193.567 47.4771 193.564 47.4631L187.713 48.7929C188.019 50.1408 188.739 51.3246 189.872 52.1911L193.517 47.4249ZM193.59 47.5913C193.608 47.692 193.54 47.5622 193.773 47.0774L188.367 44.4746C187.769 45.7178 187.412 47.156 187.687 48.6647L193.59 47.5913ZM193.8 47.0214L206.088 20.0934L200.629 17.6026L188.341 44.5306L193.8 47.0214ZM206.073 20.1254C206.446 19.3329 206.757 19.0536 206.872 18.9747L203.492 14.0173C202.2 14.8984 201.295 16.1871 200.644 17.5706L206.073 20.1254ZM206.947 18.9222C207.103 18.8084 207.292 18.728 207.63 18.728V12.728C206.113 12.728 204.669 13.1596 203.418 14.0698L206.947 18.9222ZM207.63 18.728C207.969 18.728 208.157 18.8084 208.314 18.9222L211.843 14.0698C210.591 13.1596 209.148 12.728 207.63 12.728V18.728ZM208.388 18.9747C208.481 19.0375 208.77 19.2894 209.11 20.0589L214.599 17.6371C213.979 16.2306 213.084 14.9145 211.768 14.0173L208.388 18.9747ZM209.129 20.1015L221.513 47.0295L226.964 44.5225L214.58 17.5945L209.129 20.1015ZM221.535 47.0774C221.646 47.3077 221.69 47.465 221.706 47.5555C221.714 47.5999 221.715 47.6284 221.716 47.6432C221.716 47.6508 221.715 47.6558 221.715 47.6584C221.715 47.6598 221.715 47.6607 221.715 47.6612C221.715 47.6615 221.715 47.6617 221.715 47.6618C221.715 47.6619 221.715 47.662 221.715 47.662L227.626 48.69C227.888 47.1828 227.552 45.7425 226.941 44.4746L221.535 47.0774ZM221.698 47.7707C221.697 47.7802 221.704 47.7221 221.754 47.6356C221.804 47.547 221.862 47.4927 221.888 47.4729L225.533 52.2391C226.732 51.3219 227.444 50.0378 227.643 48.5813L221.698 47.7707ZM221.98 47.4051C222.074 47.3389 222.026 47.432 221.598 47.432V53.432C222.898 53.432 224.259 53.1411 225.44 52.3069L221.98 47.4051ZM221.598 47.432C220.957 47.432 220.883 47.2823 220.987 47.3693L217.122 51.9587C218.441 53.0697 220.064 53.432 221.598 53.432V47.432ZM221.047 47.4218C220.944 47.3298 220.65 46.9899 220.292 46.1217L214.744 48.4062C215.283 49.7141 216.013 50.9742 217.061 51.9062L221.047 47.4218ZM220.273 46.0751L217.393 39.4031L211.884 41.7809L214.764 48.4529L220.273 46.0751ZM212.929 43.0571L215.905 45.1211L219.324 40.1909L216.348 38.1269L212.929 43.0571ZM217.614 39.656H197.598V45.656H217.614V39.656ZM199.308 45.1211L202.284 43.0571L198.865 38.1269L195.889 40.1909L199.308 45.1211ZM197.813 39.4198L194.981 46.0918L200.504 48.4362L203.336 41.7642L197.813 39.4198ZM194.985 46.0822C194.577 47.0332 194.263 47.421 194.15 47.5274L198.262 51.8966C199.237 50.979 199.947 49.7348 200.5 48.4458L194.985 46.0822ZM194.155 47.5234C194.21 47.4711 194.263 47.435 194.304 47.4123C194.343 47.3902 194.362 47.3852 194.352 47.3886C194.324 47.3973 194.189 47.432 193.902 47.432V53.432C195.342 53.432 196.981 53.0983 198.258 51.9006L194.155 47.5234ZM204.768 22.9191L198.624 37.5591L204.157 39.8809L210.301 25.2409L204.768 22.9191ZM203.857 37.0124L202.561 35.1404L197.628 38.5556L198.924 40.4276L203.857 37.0124ZM200.094 39.848H215.118V33.848H200.094V39.848ZM212.652 35.1404L211.356 37.0124L216.289 40.4276L217.585 38.5556L212.652 35.1404ZM216.585 37.5514L210.393 22.9114L204.867 25.2486L211.059 39.8886L216.585 37.5514ZM207.63 21.08H207.534V27.08H207.63V21.08ZM236.782 48.368L235.325 50.9905L236.782 48.368ZM230.782 42.32L228.125 43.7132C228.132 43.7262 228.139 43.7391 228.146 43.752L230.782 42.32ZM229.87 25.904L227.059 24.8552C227.056 24.8631 227.054 24.8709 227.051 24.8788L229.87 25.904ZM233.326 20.432L235.447 22.5533C235.455 22.5459 235.462 22.5384 235.47 22.5309L233.326 20.432ZM238.798 16.88L237.727 14.0778C237.722 14.0796 237.717 14.0814 237.713 14.0832L238.798 16.88ZM250.99 16.256L250.249 19.163C250.271 19.1687 250.293 19.174 250.316 19.1792L250.99 16.256ZM255.31 17.936L253.757 20.5025C253.786 20.52 253.815 20.537 253.844 20.5535L255.31 17.936ZM256.942 19.616L254.185 20.7978L254.185 20.7978L256.942 19.616ZM257.182 21.632L254.235 21.0707C254.226 21.1162 254.219 21.1619 254.212 21.2077L257.182 21.632ZM256.366 23.36L254.173 21.313C254.148 21.34 254.123 21.3674 254.099 21.3952L256.366 23.36ZM254.782 24.272L255.37 27.2137L254.782 24.272ZM252.622 23.84L251.079 26.4125C251.131 26.4438 251.184 26.4736 251.238 26.5016L252.622 23.84ZM240.958 23.504L242.459 26.1016C242.465 26.0982 242.471 26.0947 242.477 26.0912L240.958 23.504ZM237.694 27.152L240.42 28.4057L237.694 27.152ZM237.694 38.96L234.959 40.1933V40.1933L237.694 38.96ZM240.958 42.704L239.415 45.2765C239.437 45.2898 239.459 45.3029 239.482 45.3157L240.958 42.704ZM249.502 43.568L248.815 40.6477C248.808 40.6493 248.802 40.6509 248.795 40.6525L249.502 43.568ZM252.622 42.368L251.28 39.6847C251.247 39.7017 251.213 39.7193 251.18 39.7376L252.622 42.368ZM254.83 41.936L254.242 44.8777C254.296 44.8886 254.351 44.898 254.406 44.9058L254.83 41.936ZM256.462 42.8L254.195 44.7648C254.242 44.8187 254.29 44.8709 254.341 44.9213L256.462 42.8ZM257.278 44.432L254.311 44.877C254.319 44.925 254.327 44.9728 254.336 45.0203L257.278 44.432ZM257.086 46.352L254.301 45.2378L257.086 46.352ZM255.646 47.984L254.035 45.453C254.012 45.4678 253.989 45.4828 253.967 45.4982L255.646 47.984ZM251.278 49.856L252.031 52.76L251.278 49.856ZM246.142 47.528C242.888 47.528 240.294 46.887 238.239 45.7455L235.325 50.9905C238.454 52.729 242.101 53.528 246.142 53.528V47.528ZM238.239 45.7455C236.142 44.5808 234.553 42.9765 233.418 40.888L228.146 43.752C229.827 46.8475 232.238 49.2752 235.325 50.9905L238.239 45.7455ZM233.439 40.9268C232.329 38.8101 231.718 36.2185 231.718 33.056H225.718C225.718 36.9975 226.483 40.5819 228.125 43.7132L233.439 40.9268ZM231.718 33.056C231.718 30.6875 232.061 28.6589 232.69 26.9292L227.051 24.8788C226.144 27.3731 225.718 30.1125 225.718 33.056H231.718ZM232.681 26.9528C233.342 25.1805 234.27 23.7307 235.447 22.5533L231.205 18.3107C229.374 20.1413 227.998 22.3395 227.059 24.8552L232.681 26.9528ZM235.47 22.5309C236.654 21.3212 238.11 20.3652 239.883 19.6768L237.713 14.0832C235.199 15.0588 233.006 16.4708 231.183 18.3331L235.47 22.5309ZM239.87 19.6822C241.651 19.0009 243.728 18.632 246.142 18.632V12.632C243.116 12.632 240.297 13.0951 237.727 14.0778L239.87 19.6822ZM246.142 18.632C247.479 18.632 248.847 18.8055 250.249 19.163L251.731 13.349C249.87 12.8745 248.005 12.632 246.142 12.632V18.632ZM250.316 19.1792C251.73 19.5056 252.861 19.9606 253.757 20.5025L256.864 15.3695C255.327 14.4394 253.578 13.7744 251.665 13.3328L250.316 19.1792ZM253.844 20.5535C254.034 20.6599 254.128 20.7428 254.166 20.7824C254.2 20.8171 254.195 20.8215 254.185 20.7978L259.7 18.4342C259.091 17.014 258.004 16.0061 256.776 15.3185L253.844 20.5535ZM254.185 20.7978C254.254 20.9603 254.243 21.0266 254.235 21.0707L260.129 22.1933C260.377 20.8934 260.206 19.6157 259.7 18.4342L254.185 20.7978ZM254.212 21.2077C254.208 21.2385 254.203 21.2584 254.2 21.2695C254.196 21.2805 254.194 21.2856 254.193 21.287C254.193 21.2883 254.192 21.2896 254.19 21.292C254.189 21.2945 254.184 21.3015 254.173 21.313L258.559 25.407C259.441 24.4623 259.972 23.314 260.152 22.0563L254.212 21.2077ZM254.099 21.3952C254.099 21.3958 254.104 21.3893 254.116 21.3791C254.129 21.3688 254.144 21.3579 254.161 21.3481C254.178 21.3384 254.192 21.3324 254.2 21.3293C254.209 21.3263 254.207 21.3276 254.194 21.3303L255.37 27.2137C256.644 26.9591 257.769 26.3223 258.633 25.3248L254.099 21.3952ZM254.194 21.3303C254.308 21.3074 254.371 21.3223 254.35 21.3183C254.322 21.3126 254.21 21.2844 254.006 21.1784L251.238 26.5016C252.416 27.114 253.845 27.5189 255.37 27.2137L254.194 21.3303ZM254.166 21.2675C252.954 20.5403 251.664 20.006 250.305 19.6764L248.891 25.5075C249.644 25.69 250.371 25.9877 251.079 26.4125L254.166 21.2675ZM250.305 19.6764C249.017 19.3643 247.708 19.208 246.382 19.208V25.208C247.232 25.208 248.067 25.3077 248.891 25.5075L250.305 19.6764ZM246.382 19.208C243.839 19.208 241.476 19.7214 239.44 20.9167L242.477 26.0912C243.384 25.5586 244.637 25.208 246.382 25.208V19.208ZM239.457 20.9064C237.447 22.0678 235.948 23.7697 234.969 25.8983L240.42 28.4057C240.912 27.3343 241.589 26.6042 242.459 26.1016L239.457 20.9064ZM234.969 25.8983C234.003 27.9977 233.59 30.4217 233.59 33.056H239.59C239.59 31.0183 239.913 29.5063 240.42 28.4057L234.969 25.8983ZM233.59 33.056C233.59 35.668 234.006 38.0794 234.959 40.1933L240.429 37.7267C239.91 36.5766 239.59 35.052 239.59 33.056H233.59ZM234.959 40.1933C235.929 42.3438 237.415 44.0767 239.415 45.2765L242.502 40.1315C241.621 39.6033 240.931 38.8402 240.429 37.7267L234.959 40.1933ZM239.482 45.3157C241.51 46.4617 243.857 46.952 246.382 46.952V40.952C244.619 40.952 243.351 40.6103 242.434 40.0923L239.482 45.3157ZM246.382 46.952C247.658 46.952 248.936 46.7922 250.209 46.4836L248.795 40.6525C247.957 40.8558 247.154 40.952 246.382 40.952V46.952ZM250.189 46.4883C251.544 46.1694 252.838 45.6711 254.065 44.9984L251.18 39.7376C250.422 40.1529 249.636 40.4546 248.815 40.6477L250.189 46.4883ZM253.964 45.0513C254.193 44.9366 254.327 44.9015 254.374 44.8922C254.414 44.8843 254.359 44.9012 254.242 44.8777L255.418 38.9943C253.897 38.69 252.462 39.0939 251.28 39.6847L253.964 45.0513ZM254.406 44.9058C254.435 44.9099 254.402 44.909 254.338 44.8754C254.272 44.8403 254.222 44.7959 254.195 44.7648L258.729 40.8352C257.806 39.7699 256.588 39.1567 255.254 38.9662L254.406 44.9058ZM254.341 44.9213C254.345 44.9256 254.343 44.924 254.337 44.9162C254.331 44.9083 254.325 44.8977 254.319 44.8856C254.313 44.8736 254.31 44.8645 254.308 44.8604C254.307 44.8565 254.309 44.8613 254.311 44.877L260.245 43.987C260.056 42.7268 259.496 41.591 258.583 40.6787L254.341 44.9213ZM254.336 45.0203C254.344 45.0569 254.353 45.1063 254.301 45.2378L259.872 47.4662C260.331 46.3177 260.469 45.0871 260.22 43.8437L254.336 45.0203ZM254.301 45.2378C254.307 45.2226 254.31 45.2269 254.285 45.2551C254.256 45.2871 254.185 45.358 254.035 45.453L257.257 50.515C258.377 49.802 259.336 48.8039 259.872 47.4662L254.301 45.2378ZM253.967 45.4982C253.126 46.0662 252.002 46.5692 250.525 46.952L252.031 52.76C254.01 52.2468 255.798 51.5018 257.326 50.4698L253.967 45.4982ZM250.525 46.952C249.03 47.3396 247.571 47.528 246.142 47.528V53.528C248.105 53.528 250.07 53.2684 252.031 52.76L250.525 46.952ZM269.91 48.368L268.453 50.9905L269.91 48.368ZM263.91 42.32L261.253 43.7132C261.26 43.7262 261.266 43.7391 261.273 43.752L263.91 42.32ZM262.998 25.904L260.187 24.8552C260.184 24.8631 260.181 24.8709 260.178 24.8788L262.998 25.904ZM266.454 20.432L268.575 22.5533C268.582 22.5459 268.59 22.5384 268.597 22.5309L266.454 20.432ZM271.926 16.88L270.854 14.0778C270.85 14.0796 270.845 14.0814 270.84 14.0832L271.926 16.88ZM284.118 16.256L283.377 19.163C283.399 19.1687 283.421 19.174 283.443 19.1792L284.118 16.256ZM288.438 17.936L286.884 20.5025C286.913 20.52 286.942 20.537 286.972 20.5535L288.438 17.936ZM290.07 19.616L287.312 20.7978V20.7978L290.07 19.616ZM290.31 21.632L287.363 21.0707C287.354 21.1162 287.346 21.1619 287.34 21.2077L290.31 21.632ZM289.494 23.36L287.3 21.313C287.275 21.34 287.251 21.3674 287.227 21.3952L289.494 23.36ZM287.91 24.272L288.498 27.2137L287.91 24.272ZM285.75 23.84L284.206 26.4125C284.258 26.4438 284.312 26.4736 284.366 26.5016L285.75 23.84ZM274.086 23.504L275.586 26.1016C275.592 26.0982 275.598 26.0947 275.604 26.0912L274.086 23.504ZM270.822 27.152L273.547 28.4057L270.822 27.152ZM270.822 38.96L268.087 40.1933V40.1933L270.822 38.96ZM274.086 42.704L272.542 45.2765C272.564 45.2898 272.587 45.3029 272.609 45.3157L274.086 42.704ZM282.63 43.568L281.943 40.6477C281.936 40.6493 281.929 40.6509 281.923 40.6525L282.63 43.568ZM285.75 42.368L284.408 39.6847C284.374 39.7017 284.34 39.7193 284.307 39.7376L285.75 42.368ZM287.958 41.936L287.369 44.8777C287.424 44.8886 287.478 44.898 287.533 44.9058L287.958 41.936ZM289.59 42.8L287.323 44.7648C287.369 44.8187 287.418 44.8709 287.468 44.9213L289.59 42.8ZM290.406 44.432L287.439 44.877C287.446 44.925 287.454 44.9728 287.464 45.0203L290.406 44.432ZM290.214 46.352L287.428 45.2378L290.214 46.352ZM288.774 47.984L287.163 45.453C287.14 45.4678 287.117 45.4828 287.094 45.4982L288.774 47.984ZM284.406 49.856L285.159 52.76L284.406 49.856ZM279.27 47.528C276.015 47.528 273.421 46.887 271.367 45.7455L268.453 50.9905C271.582 52.729 275.228 53.528 279.27 53.528V47.528ZM271.367 45.7455C269.27 44.5808 267.68 42.9765 266.546 40.888L261.273 43.752C262.955 46.8475 265.365 49.2752 268.453 50.9905L271.367 45.7455ZM266.566 40.9268C265.457 38.8101 264.846 36.2185 264.846 33.056H258.846C258.846 36.9975 259.611 40.5819 261.253 43.7132L266.566 40.9268ZM264.846 33.056C264.846 30.6875 265.188 28.6589 265.817 26.9292L260.178 24.8788C259.271 27.3731 258.846 30.1125 258.846 33.056H264.846ZM265.808 26.9528C266.47 25.1805 267.398 23.7307 268.575 22.5533L264.332 18.3107C262.502 20.1413 261.126 22.3395 260.187 24.8552L265.808 26.9528ZM268.597 22.5309C269.782 21.3212 271.237 20.3652 273.011 19.6768L270.84 14.0832C268.326 15.0588 266.134 16.4708 264.31 18.3331L268.597 22.5309ZM272.997 19.6822C274.779 19.0009 276.856 18.632 279.27 18.632V12.632C276.244 12.632 273.424 13.0951 270.854 14.0778L272.997 19.6822ZM279.27 18.632C280.607 18.632 281.974 18.8055 283.377 19.163L284.859 13.349C282.997 12.8745 281.132 12.632 279.27 12.632V18.632ZM283.443 19.1792C284.858 19.5056 285.989 19.9606 286.884 20.5025L289.991 15.3695C288.454 14.4394 286.706 13.7744 284.792 13.3328L283.443 19.1792ZM286.972 20.5535C287.162 20.6599 287.255 20.7428 287.294 20.7824C287.328 20.8171 287.322 20.8215 287.312 20.7978L292.827 18.4342C292.218 17.014 291.131 16.0061 289.903 15.3185L286.972 20.5535ZM287.312 20.7978C287.382 20.9603 287.371 21.0266 287.363 21.0707L293.257 22.1933C293.504 20.8934 293.333 19.6157 292.827 18.4342L287.312 20.7978ZM287.34 21.2077C287.335 21.2385 287.33 21.2584 287.327 21.2695C287.324 21.2805 287.322 21.2856 287.321 21.287C287.32 21.2883 287.32 21.2896 287.318 21.292C287.316 21.2945 287.311 21.3015 287.3 21.313L291.687 25.407C292.568 24.4623 293.1 23.314 293.279 22.0563L287.34 21.2077ZM287.227 21.3952C287.226 21.3958 287.232 21.3893 287.244 21.3791C287.256 21.3688 287.272 21.3579 287.289 21.3481C287.306 21.3384 287.32 21.3324 287.328 21.3293C287.336 21.3263 287.335 21.3276 287.321 21.3303L288.498 27.2137C289.771 26.9591 290.896 26.3223 291.761 25.3248L287.227 21.3952ZM287.321 21.3303C287.435 21.3074 287.498 21.3223 287.478 21.3183C287.45 21.3126 287.338 21.2844 287.134 21.1784L284.366 26.5016C285.543 27.114 286.972 27.5189 288.498 27.2137L287.321 21.3303ZM287.293 21.2675C286.081 20.5403 284.792 20.006 283.432 19.6764L282.019 25.5075C282.771 25.69 283.498 25.9877 284.206 26.4125L287.293 21.2675ZM283.432 19.6764C282.145 19.3643 280.835 19.208 279.51 19.208V25.208C280.36 25.208 281.195 25.3077 282.019 25.5075L283.432 19.6764ZM279.51 19.208C276.967 19.208 274.603 19.7214 272.567 20.9167L275.604 26.0912C276.512 25.5586 277.764 25.208 279.51 25.208V19.208ZM272.585 20.9064C270.575 22.0678 269.075 23.7697 268.096 25.8983L273.547 28.4057C274.04 27.3343 274.716 26.6042 275.586 26.1016L272.585 20.9064ZM268.096 25.8983C267.13 27.9977 266.718 30.4217 266.718 33.056H272.718C272.718 31.0183 273.041 29.5063 273.547 28.4057L268.096 25.8983ZM266.718 33.056C266.718 35.668 267.134 38.0794 268.087 40.1933L273.556 37.7267C273.038 36.5766 272.718 35.052 272.718 33.056H266.718ZM268.087 40.1933C269.057 42.3438 270.542 44.0767 272.542 45.2765L275.629 40.1315C274.749 39.6033 274.059 38.8402 273.556 37.7267L268.087 40.1933ZM272.609 45.3157C274.637 46.4617 276.984 46.952 279.51 46.952V40.952C277.747 40.952 276.478 40.6103 275.562 40.0923L272.609 45.3157ZM279.51 46.952C280.786 46.952 282.063 46.7922 283.336 46.4836L281.923 40.6525C281.084 40.8558 280.281 40.952 279.51 40.952V46.952ZM283.317 46.4883C284.672 46.1694 285.965 45.6711 287.192 44.9984L284.307 39.7376C283.55 40.1529 282.764 40.4546 281.943 40.6477L283.317 46.4883ZM287.091 45.0513C287.321 44.9366 287.454 44.9015 287.502 44.8922C287.542 44.8843 287.486 44.9012 287.369 44.8777L288.546 38.9943C287.025 38.69 285.59 39.0939 284.408 39.6847L287.091 45.0513ZM287.533 44.9058C287.562 44.9099 287.529 44.909 287.466 44.8754C287.4 44.8403 287.35 44.7959 287.323 44.7648L291.857 40.8352C290.933 39.7699 289.716 39.1567 288.382 38.9662L287.533 44.9058ZM287.468 44.9213C287.473 44.9256 287.47 44.924 287.465 44.9162C287.459 44.9083 287.452 44.8977 287.446 44.8856C287.44 44.8736 287.437 44.8645 287.436 44.8604C287.435 44.8565 287.436 44.8613 287.439 44.877L293.372 43.987C293.183 42.7268 292.623 41.591 291.711 40.6787L287.468 44.9213ZM287.464 45.0203C287.471 45.0569 287.481 45.1063 287.428 45.2378L292.999 47.4662C293.458 46.3177 293.596 45.0871 293.347 43.8437L287.464 45.0203ZM287.428 45.2378C287.434 45.2226 287.437 45.2269 287.412 45.2551C287.384 45.2871 287.312 45.358 287.163 45.453L290.384 50.515C291.505 49.802 292.464 48.8039 292.999 47.4662L287.428 45.2378ZM287.094 45.4982C286.253 46.0662 285.129 46.5692 283.653 46.952L285.159 52.76C287.138 52.2468 288.926 51.5018 290.453 50.4698L287.094 45.4982ZM283.653 46.952C282.158 47.3396 280.699 47.528 279.27 47.528V53.528C281.233 53.528 283.198 53.2684 285.159 52.76L283.653 46.952ZM302.893 48.368L301.369 50.9521C301.382 50.9597 301.395 50.9673 301.408 50.9748L302.893 48.368ZM297.037 42.224L294.38 43.6172C294.385 43.6257 294.389 43.6341 294.394 43.6425L297.037 42.224ZM296.125 25.904L293.314 24.8552C293.311 24.8631 293.309 24.8709 293.306 24.8788L296.125 25.904ZM299.533 20.432L301.677 22.5304C301.684 22.5229 301.692 22.5153 301.699 22.5077L299.533 20.432ZM304.813 16.88L303.699 14.0946C303.694 14.0966 303.689 14.0986 303.684 14.1006L304.813 16.88ZM320.509 17.792L319.01 20.3906L320.509 17.792ZM326.317 23.888L323.66 25.2812C323.667 25.2942 323.674 25.3071 323.681 25.32L326.317 23.888ZM327.229 40.208L330.04 41.2568L327.229 40.208ZM323.821 45.728L325.987 47.8037L323.821 45.728ZM318.541 49.28L317.412 46.5006L318.541 49.28ZM316.477 42.896L318.127 45.4015C318.132 45.3984 318.137 45.3953 318.141 45.3922L316.477 42.896ZM319.549 39.056L316.797 37.8617C316.793 37.8702 316.79 37.8786 316.786 37.8871L319.549 39.056ZM318.301 24.896L315.962 26.7748C315.967 26.7811 315.972 26.7873 315.978 26.7936L318.301 24.896ZM303.805 27.056L306.568 28.2249V28.2249L303.805 27.056ZM305.101 41.264L302.747 43.1242C302.752 43.1304 302.757 43.1366 302.762 43.1428L305.101 41.264ZM311.677 47.528C308.794 47.528 306.392 46.9083 304.378 45.7612L301.408 50.9748C304.45 52.7077 307.904 53.528 311.677 53.528V47.528ZM304.417 45.7839C302.407 44.5987 300.837 42.96 299.681 40.8055L294.394 43.6425C296.054 46.736 298.387 49.1933 301.369 50.9521L304.417 45.7839ZM299.694 40.8308C298.58 38.7067 297.973 36.1446 297.973 33.056H291.973C291.973 36.9434 292.742 40.4933 294.38 43.6172L299.694 40.8308ZM297.973 33.056C297.973 30.6875 298.316 28.6589 298.945 26.9292L293.306 24.8788C292.399 27.3731 291.973 30.1125 291.973 33.056H297.973ZM298.936 26.9528C299.602 25.1667 300.523 23.7095 301.677 22.5304L297.389 18.3336C295.599 20.1625 294.248 22.3533 293.314 24.8552L298.936 26.9528ZM301.699 22.5077C302.867 21.2886 304.27 20.3388 305.942 19.6594L303.684 14.1006C301.26 15.0852 299.143 16.5034 297.367 18.3563L301.699 22.5077ZM305.927 19.6654C307.615 18.9905 309.519 18.632 311.677 18.632V12.632C308.843 12.632 306.172 13.1055 303.699 14.0946L305.927 19.6654ZM311.677 18.632C314.637 18.632 317.045 19.2568 319.01 20.3906L322.008 15.1934C318.981 13.4472 315.502 12.632 311.677 12.632V18.632ZM319.01 20.3906C320.999 21.5382 322.54 23.1456 323.66 25.2812L328.974 22.4948C327.342 19.3824 325.011 16.9258 322.008 15.1934L319.01 20.3906ZM323.681 25.32C324.81 27.3987 325.429 29.9289 325.429 33.008H331.429C331.429 29.1111 330.64 25.5613 328.953 22.456L323.681 25.32ZM325.429 33.008C325.429 35.3625 325.075 37.3999 324.418 39.1592L330.04 41.2568C330.983 38.7281 331.429 35.9655 331.429 33.008H325.429ZM324.418 39.1592C323.75 40.9499 322.824 42.4329 321.655 43.6523L325.987 47.8037C327.763 45.9511 329.108 43.7541 330.04 41.2568L324.418 39.1592ZM321.655 43.6523C320.487 44.8714 319.084 45.8212 317.412 46.5006L319.67 52.0594C322.094 51.0748 324.211 49.6566 325.987 47.8037L321.655 43.6523ZM317.412 46.5006C315.77 47.1675 313.873 47.528 311.677 47.528V53.528C314.537 53.528 317.216 53.0565 319.67 52.0594L317.412 46.5006ZM311.677 47.192C314.032 47.192 316.234 46.6483 318.127 45.4015L314.827 40.3905C314.096 40.8717 313.099 41.192 311.677 41.192V47.192ZM318.141 45.3922C320.03 44.1329 321.407 42.3629 322.312 40.2249L316.786 37.8871C316.283 39.0771 315.612 39.8671 314.813 40.3998L318.141 45.3922ZM322.301 40.2503C323.236 38.0968 323.653 35.6728 323.653 33.056H317.653C317.653 35.0472 317.335 36.6232 316.797 37.8617L322.301 40.2503ZM323.653 33.056C323.653 29.1293 322.782 25.6395 320.625 22.9984L315.978 26.7936C316.957 27.9925 317.653 29.9427 317.653 33.056H323.653ZM320.64 23.0172C318.42 20.2532 315.293 18.968 311.677 18.968V24.968C313.757 24.968 315.047 25.6348 315.962 26.7748L320.64 23.0172ZM311.677 18.968C309.341 18.968 307.157 19.5177 305.255 20.7405L308.499 25.7875C309.285 25.2823 310.301 24.968 311.677 24.968V18.968ZM305.255 20.7405C303.338 21.9726 301.95 23.7424 301.042 25.8871L306.568 28.2249C307.069 27.0416 307.728 26.2834 308.499 25.7875L305.255 20.7405ZM301.042 25.8871C300.143 28.0121 299.749 30.4309 299.749 33.056H305.749C305.749 31.0091 306.059 29.4279 306.568 28.2249L301.042 25.8871ZM299.749 33.056C299.749 36.9663 300.627 40.4414 302.747 43.1242L307.455 39.4038C306.439 38.1186 305.749 36.1217 305.749 33.056H299.749ZM302.762 43.1428C304.976 45.898 308.08 47.192 311.677 47.192V41.192C309.642 41.192 308.363 40.534 307.44 39.3852L302.762 43.1428ZM342.536 48.368L341.012 50.9521C341.025 50.9597 341.038 50.9673 341.051 50.9748L342.536 48.368ZM336.68 42.224L334.023 43.6172C334.028 43.6257 334.032 43.6341 334.037 43.6425L336.68 42.224ZM335.768 25.904L332.958 24.8552C332.955 24.8631 332.952 24.8709 332.949 24.8788L335.768 25.904ZM339.176 20.432L341.32 22.5304C341.328 22.5229 341.335 22.5153 341.342 22.5077L339.176 20.432ZM344.456 16.88L343.342 14.0946C343.337 14.0966 343.332 14.0986 343.327 14.1006L344.456 16.88ZM360.152 17.792L358.653 20.3906L360.152 17.792ZM365.96 23.888L363.303 25.2812C363.31 25.2942 363.317 25.3071 363.324 25.32L365.96 23.888ZM366.872 40.208L369.683 41.2568L366.872 40.208ZM363.464 45.728L365.63 47.8037L363.464 45.728ZM358.184 49.28L357.055 46.5006L358.184 49.28ZM356.12 42.896L357.77 45.4015C357.775 45.3984 357.78 45.3953 357.784 45.3922L356.12 42.896ZM359.192 39.056L356.44 37.8617C356.437 37.8702 356.433 37.8786 356.429 37.8871L359.192 39.056ZM357.944 24.896L355.605 26.7748C355.61 26.7811 355.616 26.7873 355.621 26.7936L357.944 24.896ZM343.448 27.056L346.211 28.2249V28.2249L343.448 27.056ZM344.744 41.264L342.391 43.1242C342.395 43.1304 342.4 43.1366 342.405 43.1428L344.744 41.264ZM351.32 47.528C348.437 47.528 346.035 46.9083 344.021 45.7612L341.051 50.9748C344.094 52.7077 347.548 53.528 351.32 53.528V47.528ZM344.06 45.7839C342.051 44.5987 340.48 42.96 339.324 40.8055L334.037 43.6425C335.697 46.736 338.03 49.1933 341.012 50.9521L344.06 45.7839ZM339.337 40.8308C338.223 38.7067 337.616 36.1446 337.616 33.056H331.616C331.616 36.9434 332.385 40.4933 334.023 43.6172L339.337 40.8308ZM337.616 33.056C337.616 30.6875 337.959 28.6589 338.588 26.9292L332.949 24.8788C332.042 27.3731 331.616 30.1125 331.616 33.056H337.616ZM338.579 26.9528C339.245 25.1667 340.166 23.7095 341.32 22.5304L337.032 18.3336C335.242 20.1625 333.891 22.3533 332.958 24.8552L338.579 26.9528ZM341.342 22.5077C342.511 21.2886 343.913 20.3388 345.585 19.6594L343.327 14.1006C340.903 15.0852 338.786 16.5034 337.01 18.3563L341.342 22.5077ZM345.57 19.6654C347.258 18.9905 349.162 18.632 351.32 18.632V12.632C348.486 12.632 345.815 13.1055 343.342 14.0946L345.57 19.6654ZM351.32 18.632C354.28 18.632 356.688 19.2568 358.653 20.3906L361.651 15.1934C358.625 13.4472 355.145 12.632 351.32 12.632V18.632ZM358.653 20.3906C360.642 21.5382 362.183 23.1456 363.303 25.2812L368.617 22.4948C366.985 19.3824 364.654 16.9258 361.651 15.1934L358.653 20.3906ZM363.324 25.32C364.453 27.3987 365.072 29.9289 365.072 33.008H371.072C371.072 29.1111 370.283 25.5613 368.596 22.456L363.324 25.32ZM365.072 33.008C365.072 35.3625 364.718 37.3999 364.062 39.1592L369.683 41.2568C370.626 38.7281 371.072 35.9655 371.072 33.008H365.072ZM364.062 39.1592C363.393 40.9499 362.467 42.4329 361.298 43.6523L365.63 47.8037C367.406 45.9511 368.751 43.7541 369.683 41.2568L364.062 39.1592ZM361.298 43.6523C360.13 44.8714 358.727 45.8212 357.055 46.5006L359.313 52.0594C361.737 51.0748 363.855 49.6566 365.63 47.8037L361.298 43.6523ZM357.055 46.5006C355.413 47.1675 353.516 47.528 351.32 47.528V53.528C354.18 53.528 356.859 53.0565 359.313 52.0594L357.055 46.5006ZM351.32 47.192C353.675 47.192 355.877 46.6483 357.77 45.4015L354.47 40.3905C353.739 40.8717 352.742 41.192 351.32 41.192V47.192ZM357.784 45.3922C359.673 44.1329 361.051 42.3629 361.955 40.2249L356.429 37.8871C355.926 39.0771 355.255 39.8671 354.456 40.3998L357.784 45.3922ZM361.944 40.2503C362.879 38.0968 363.296 35.6728 363.296 33.056H357.296C357.296 35.0472 356.978 36.6232 356.44 37.8617L361.944 40.2503ZM363.296 33.056C363.296 29.1293 362.425 25.6395 360.268 22.9984L355.621 26.7936C356.6 27.9925 357.296 29.9427 357.296 33.056H363.296ZM360.283 23.0172C358.063 20.2532 354.936 18.968 351.32 18.968V24.968C353.4 24.968 354.69 25.6348 355.605 26.7748L360.283 23.0172ZM351.32 18.968C348.984 18.968 346.8 19.5177 344.898 20.7405L348.143 25.7875C348.929 25.2823 349.945 24.968 351.32 24.968V18.968ZM344.898 20.7405C342.981 21.9726 341.593 23.7424 340.685 25.8871L346.211 28.2249C346.712 27.0416 347.371 26.2834 348.143 25.7875L344.898 20.7405ZM340.685 25.8871C339.786 28.0121 339.392 30.4309 339.392 33.056H345.392C345.392 31.0091 345.702 29.4279 346.211 28.2249L340.685 25.8871ZM339.392 33.056C339.392 36.9663 340.27 40.4414 342.391 43.1242L347.098 39.4038C346.082 38.1186 345.392 36.1217 345.392 33.056H339.392ZM342.405 43.1428C344.619 45.898 347.723 47.192 351.32 47.192V41.192C349.285 41.192 348.006 40.534 347.083 39.3852L342.405 43.1428ZM376.131 49.52L373.901 51.5269C373.937 51.566 373.973 51.6041 374.01 51.6413L376.131 49.52ZM376.131 16.688L373.956 14.6218C373.938 14.6413 373.92 14.6611 373.901 14.6811L376.131 16.688ZM380.499 16.256L378.646 18.615C378.707 18.6631 378.77 18.7089 378.835 18.7522L380.499 16.256ZM382.131 17.888L384.491 16.0352L384.484 16.0259L382.131 17.888ZM398.979 39.344V42.344C400.128 42.344 401.175 41.6885 401.677 40.6558C402.179 39.6231 402.048 38.3944 401.339 37.4912L398.979 39.344ZM397.683 39.344H394.683C394.683 41.0009 396.027 42.344 397.683 42.344V39.344ZM398.547 16.688L396.372 14.6218L396.37 14.6248L398.547 16.688ZM403.683 16.688L401.453 18.6949C401.489 18.734 401.525 18.7721 401.562 18.8093L403.683 16.688ZM403.779 49.52L406.015 51.5204C406.032 51.5015 406.049 51.4823 406.065 51.4629L403.779 49.52ZM399.411 49.904L397.712 52.3761C397.735 52.392 397.758 52.4075 397.782 52.4227L399.411 49.904ZM397.731 48.224L395.369 50.0735C395.373 50.0777 395.376 50.0819 395.379 50.0861L397.731 48.224ZM380.931 26.768V23.768C379.784 23.768 378.737 24.4226 378.234 25.4543C377.732 26.486 377.862 27.714 378.569 28.6175L380.931 26.768ZM382.179 26.768H385.179C385.179 25.1111 383.836 23.768 382.179 23.768V26.768ZM381.315 49.52L383.493 51.5832C383.511 51.5647 383.528 51.5459 383.545 51.5269L381.315 49.52ZM378.723 47.432C378.43 47.432 378.281 47.3916 378.231 47.3741C378.194 47.3611 378.219 47.3647 378.253 47.3987L374.01 51.6413C375.336 52.9674 377.058 53.432 378.723 53.432V47.432ZM378.361 47.5131C378.382 47.5361 378.366 47.5328 378.339 47.45C378.309 47.3564 378.267 47.1635 378.267 46.832H372.267C372.267 48.4707 372.682 50.1724 373.901 51.5269L378.361 47.5131ZM378.267 46.832V19.472H372.267V46.832H378.267ZM378.267 19.472C378.267 18.6928 378.453 18.5934 378.361 18.6949L373.901 14.6811C372.658 16.0626 372.267 17.8192 372.267 19.472H378.267ZM378.306 18.7542C378.317 18.743 378.319 18.7426 378.313 18.7467C378.311 18.7484 378.308 18.7501 378.305 18.7516C378.302 18.7531 378.301 18.7536 378.302 18.7534C378.302 18.7533 378.316 18.7474 378.351 18.7413C378.386 18.735 378.445 18.728 378.531 18.728V12.728C376.829 12.728 375.204 13.3089 373.956 14.6218L378.306 18.7542ZM378.531 18.728C378.647 18.728 378.733 18.7339 378.795 18.7411C378.857 18.7483 378.888 18.756 378.894 18.7575C378.904 18.7603 378.796 18.7326 378.646 18.615L382.353 13.897C381.165 12.9636 379.737 12.728 378.531 12.728V18.728ZM378.835 18.7522C378.934 18.8183 379.25 19.0818 379.779 19.7501L384.484 16.0259C383.797 15.1582 383.024 14.3337 382.163 13.7598L378.835 18.7522ZM379.772 19.7408L396.62 41.1968L401.339 37.4912L384.491 16.0352L379.772 19.7408ZM398.979 36.344H397.683V42.344H398.979V36.344ZM400.683 39.344V19.28H394.683V39.344H400.683ZM400.683 19.28C400.683 18.9712 400.724 18.8058 400.745 18.7407C400.763 18.6877 400.764 18.7099 400.725 18.7512L396.37 14.6248C395.108 15.9565 394.683 17.6574 394.683 19.28H400.683ZM400.722 18.7542C400.714 18.7627 400.703 18.7727 400.69 18.7808C400.678 18.7887 400.677 18.7874 400.693 18.7812C400.729 18.7682 400.861 18.728 401.139 18.728V12.728C399.431 12.728 397.69 13.2348 396.372 14.6218L400.722 18.7542ZM401.139 18.728C401.42 18.728 401.54 18.7687 401.556 18.7748C401.563 18.7772 401.549 18.7725 401.523 18.7555C401.498 18.7381 401.473 18.7166 401.453 18.6949L405.913 14.6811C404.609 13.2322 402.839 12.728 401.139 12.728V18.728ZM401.562 18.8093C401.528 18.7754 401.525 18.751 401.537 18.7877C401.555 18.8376 401.595 18.9862 401.595 19.28H407.595C407.595 17.6151 407.131 15.8928 405.805 14.5667L401.562 18.8093ZM401.595 19.28V46.976H407.595V19.28H401.595ZM401.595 46.976C401.595 47.2491 401.56 47.4089 401.535 47.4877C401.512 47.5582 401.494 47.5762 401.494 47.5771L406.065 51.4629C407.179 50.1524 407.595 48.5554 407.595 46.976H401.595ZM401.544 47.5196C401.55 47.5124 401.567 47.4954 401.595 47.4757C401.622 47.4559 401.651 47.4409 401.674 47.4312C401.697 47.4218 401.705 47.4215 401.692 47.4238C401.678 47.4264 401.64 47.432 401.571 47.432V53.432C403.223 53.432 404.821 52.8553 406.015 51.5204L401.544 47.5196ZM401.571 47.432C401.04 47.432 400.947 47.3244 401.041 47.3853L397.782 52.4227C398.964 53.1876 400.311 53.432 401.571 53.432V47.432ZM401.111 47.4319C400.945 47.318 400.6 47.0139 400.084 46.3619L395.379 50.0861C396.079 50.9701 396.853 51.786 397.712 52.3761L401.111 47.4319ZM400.093 46.3745L383.293 24.9185L378.569 28.6175L395.369 50.0735L400.093 46.3745ZM380.931 29.768H382.179V23.768H380.931V29.768ZM379.179 26.768V46.832H385.179V26.768H379.179ZM379.179 46.832C379.179 47.1635 379.137 47.3564 379.107 47.45C379.081 47.5328 379.065 47.5361 379.085 47.5131L383.545 51.5269C384.764 50.1724 385.179 48.4707 385.179 46.832H379.179ZM379.138 47.4568C379.167 47.4254 379.198 47.401 379.224 47.3845C379.249 47.3687 379.258 47.3677 379.24 47.3741C379.198 47.3887 379.044 47.432 378.723 47.432V53.432C380.38 53.432 382.164 52.9868 383.493 51.5832L379.138 47.4568Z" fill="white" mask="url(#path-44-outside-2_140_4380)"/>
</g>
<defs>
<clipPath id="clip0_140_4380">
<rect width="445" height="466" fill="white"/>
</clipPath>
<clipPath id="clip1_140_4380">
<rect x="183" y="73" width="73" height="73" rx="10" fill="white"/>
</clipPath>
</defs>
</svg>
