<svg width="358" height="297" viewBox="0 0 358 297" fill="none" xmlns="http://www.w3.org/2000/svg">
<path fill-rule="evenodd" clip-rule="evenodd" d="M156.314 28.4244C144.819 15.0977 126.813 12.5723 104.424 0C93.5308 29.0695 92.6239 48.3762 107.156 62.3151L75.4694 97.8457C97.8577 122.586 106.129 130.37 136.1 143.215C113.712 183.666 90.2201 167.813 83.107 185.305C81.6647 185.305 36.6151 185.305 11.0035 185.305C4.95026 185.305 -1.56189 191.318 1.73789 199.518L30.6711 273.859H15.8767C6.08661 273.859 5.54029 296.817 15.8767 296.817L289.627 296.27C301.1 296.27 302.193 274.405 289.627 274.405H251.931C255.209 272.765 258.52 263.91 260.126 261.833C287.956 258.804 316.408 234.95 321.86 202.251C326.701 176.811 321.27 160.226 327.324 142.669C331.552 129.943 339.889 121.35 357.918 128.457C357.918 107.86 348.499 89.6463 327.324 89.6463C285.152 88.9658 262.421 109.568 259.58 139.936C254.663 168.907 268.321 177.106 268.321 217.01C261.765 162.894 249.364 154.257 225.162 130.643C242.152 117.699 250.598 112.932 264.497 97.299L236.088 61.7685C254.237 46.6161 244.381 16.9563 237.727 0C220.168 9.08489 196.054 9.64244 186.373 28.4244C179.271 23.5048 163.974 23.5048 156.314 28.4244Z" fill="white"/>
<path fill-rule="evenodd" clip-rule="evenodd" d="M152.446 33.3441C142.066 21.3183 129.501 17.492 107.648 9.2926C97.814 35.5305 99.453 49.1961 112.565 61.7685L83.0633 96.7524C103.277 119.077 116.105 129.441 143.159 141.029C116.389 193.505 92.8971 175.466 87.4339 190.772C86.1227 190.772 39.5433 190.772 16.4121 190.772C10.9489 190.772 5.48565 196.238 9.85622 204.984L38.2649 278.778H19.1437C12.0415 278.778 12.0415 292.444 19.1437 292.444H287.934C296.675 292.444 296.675 278.232 287.934 278.232L239.311 278.778C247.725 272.098 251.899 267.813 256.794 258.006C281.924 255.273 313.065 229.582 317.982 200.064C322.352 177.106 317.982 159.068 323.445 143.215C327.269 131.736 336.01 116.431 353.492 123.537C353.492 104.952 342.566 94.0193 323.445 94.0193C286.295 94.0193 266.627 109.871 262.803 144.309C260.071 179.839 284.11 208.81 262.803 243.794C272.342 186.333 243.136 151.415 221.283 130.096C236.623 118.41 244.796 111.402 257.34 97.299L229.477 61.7685C245.867 48.1029 240.404 24.5981 234.394 9.2926C218.551 17.492 197.791 16.3987 189.05 33.3441C177.031 28.4244 164.465 28.4244 152.446 33.3441Z" fill="#111A1B"/>
<path fill-rule="evenodd" clip-rule="evenodd" d="M191.366 252.54C193.704 233.999 198.304 225.92 217.043 219.196C197.922 217.556 188.088 229.582 191.366 252.54Z" fill="white"/>
<path fill-rule="evenodd" clip-rule="evenodd" d="M123.535 33.8907L117.536 25.1447C132.615 27.3312 139.924 30.2283 149.212 40.4502C161.242 28.4245 182.002 31.1576 195.114 40.4502C205.068 30.447 212.181 26.6643 228.986 25.1447C231.717 40.4502 230.625 49.7428 218.606 60.6753C223.195 74.9749 229.619 82.0373 241.005 94.5659C223.523 110.418 187.465 132.83 170.529 132.83C155.221 132.83 131.183 112.605 103.332 95.6592L119.711 78.1672C120.781 71.3016 121.819 67.3113 126.266 59.582L128.998 56.8489C122.956 51.1859 123.753 44.4515 123.535 33.8907Z" fill="#ADB1B4"/>
<path fill-rule="evenodd" clip-rule="evenodd" d="M202.216 44.8232C208.51 38.8759 213.798 36.0991 222.43 32.2508C223.271 42.5601 221.632 47.8843 216.42 56.3023C212.858 49.1852 209.864 47.0097 202.216 44.8232Z" fill="#111A1B"/>
<path fill-rule="evenodd" clip-rule="evenodd" d="M157.418 97.8457C151.397 104.405 148.666 121.897 155.768 128.457C132.276 116.978 121.896 107.685 103.332 95.6592L110.98 92.3794L139.378 109.325C145.792 103.574 149.463 100.448 157.418 97.8457Z" fill="#667381"/>
<path fill-rule="evenodd" clip-rule="evenodd" d="M126.266 59.582L128.998 56.8489C123.753 51.4264 123.535 38.8103 123.535 33.8907L117.536 25.1447C114.433 41.2592 116.269 50.1692 126.266 59.582Z" fill="#667381"/>
<path fill-rule="evenodd" clip-rule="evenodd" d="M128.998 56.8489C133.117 52.1589 136.056 49.2618 143.913 47.0097C134.822 38.7447 130.331 37.3891 123.535 33.8907C122.89 47.6765 124.682 52.4212 128.998 56.8489Z" fill="#111A1B"/>
<path fill-rule="evenodd" clip-rule="evenodd" d="M204.948 107.685C202.762 108.232 201.67 113.151 203.309 115.338C219.152 104.952 231.171 97.2991 242.097 94.5659L227.893 79.2605C221.49 64.6984 207.679 59.0354 195.114 50.836L170.529 70.5145L147.573 50.2894C133.325 59.7351 123.535 65.0483 119.711 77.6206L103.332 95.6592C114.258 94.0193 127.905 77.6206 143.202 67.2347C164.52 77.6206 163.973 85.2733 157.407 97.8457C145.934 108.778 145.934 133.923 170.529 133.923C183.641 133.923 190.743 125.723 190.743 114.791C190.743 102.765 183.641 101.672 179.27 95.1126C177.631 78.1672 185.28 74.8875 196.753 66.6881L234.449 92.9261C222.43 96.2058 224.615 100.579 204.948 107.685Z" fill="white"/>
<path fill-rule="evenodd" clip-rule="evenodd" d="M163.952 117.524C160.674 117.524 157.396 114.244 157.396 110.418C157.396 106.592 160.127 102.219 165.591 102.219C171.054 102.219 174.878 104.952 174.878 110.418C174.878 114.791 172.146 117.524 168.322 117.524C168.18 118.508 167.809 119.59 167.798 120.257C167.743 122.061 168.322 122.444 168.322 122.444C168.322 122.444 169.437 123.537 171.622 123.537C172.562 123.537 173.993 122.389 174.878 121.897C176.036 121.241 177.085 121.351 178.178 121.351C178.178 122.99 173.261 126.817 172.168 126.817C170.529 126.817 169.579 125.549 166.683 125.723C163.952 126.347 162.313 127.363 160.674 127.363C159.046 127.363 156.751 123.428 155.221 121.351C156.609 121.066 157.002 120.88 158.51 121.351C159.985 121.81 159.854 123.482 161.242 123.537C162.334 123.537 163.34 123.286 163.952 122.444C164.749 121.329 164.268 118.508 163.952 117.524Z" fill="#111A1B"/>
<path fill-rule="evenodd" clip-rule="evenodd" d="M116.444 77.074C132.276 65.0483 132.276 65.0483 146.48 55.7556L170.529 76.5274L195.114 56.8489C208.772 65.0482 212.05 66.1415 230.625 78.7138C222.43 78.1672 219.152 77.074 212.596 76.5274L197.845 67.7814C190.852 71.3891 187.192 74.2425 181.456 81.447C179.27 87.4598 179.27 89.6463 179.27 95.1126C168.868 90.8489 157.407 97.8457 154.675 98.9389C161.242 93.4727 161.242 88.5531 162.335 81.447C155.735 74.6251 149.835 71.0174 143.202 67.2347C135.521 70.3177 134.45 73.7833 128.452 78.7138C121.896 77.6206 121.896 77.6206 116.444 77.074Z" fill="#FFC631"/>
<path fill-rule="evenodd" clip-rule="evenodd" d="M110.98 92.3794C121.841 99.5183 127.752 103.126 139.378 109.325C146.054 103.793 149.9 101.421 157.407 97.8457C162.258 90.4553 165.066 86.3666 161.242 79.2605C159.057 75.9807 149.529 70.5582 143.202 66.6881C129.49 74.155 123.677 80.2007 110.98 92.3794Z" fill="#111A1B"/>
<path fill-rule="evenodd" clip-rule="evenodd" d="M203.309 109.325C210.957 107.138 222.965 97.8457 234.449 92.9261C229.532 90.1929 214.235 75.4341 196.753 66.6881C189.76 70.9736 184.734 73.2476 180.909 80.9003C179.27 84.1801 177.631 93.4727 179.27 95.1126C189.651 99.4855 193.202 103.574 203.309 109.325Z" fill="#111A1B"/>
<path d="M170.53 108.778C171.435 108.778 172.169 108.044 172.169 107.138C172.169 106.233 171.435 105.498 170.53 105.498C169.624 105.498 168.891 106.233 168.891 107.138C168.891 108.044 169.624 108.778 170.53 108.778Z" fill="white"/>
<path d="M194.568 84.7267C196.076 84.7267 197.299 83.503 197.299 81.9936C197.299 80.4841 196.076 79.2605 194.568 79.2605C193.059 79.2605 191.836 80.4841 191.836 81.9936C191.836 83.503 193.059 84.7267 194.568 84.7267Z" fill="white"/>
<path d="M145.399 84.7267C146.907 84.7267 148.13 83.503 148.13 81.9936C148.13 80.4841 146.907 79.2605 145.399 79.2605C143.89 79.2605 142.667 80.4841 142.667 81.9936C142.667 83.503 143.89 84.7267 145.399 84.7267Z" fill="white"/>
<path fill-rule="evenodd" clip-rule="evenodd" d="M197.299 142.669C185.608 150.606 178.768 153.405 166.159 154.695C160.696 171.093 141.017 186.399 118.629 190.772C155.768 194.598 167.142 183.611 180.363 171.093C175.075 180.298 170.213 184.016 161.788 190.772C188.012 180.933 197.299 165.08 197.299 142.669Z" fill="#BBBDBF"/>
<path fill-rule="evenodd" clip-rule="evenodd" d="M184.734 161.254C178.724 175.466 171.622 183.119 156.86 192.958C180.91 184.212 186.919 174.373 184.734 161.254Z" fill="#5C616B"/>
<path fill-rule="evenodd" clip-rule="evenodd" d="M167.252 188.585C168.89 185.306 174.354 182.572 176.539 178.746C175.993 182.026 176.539 184.212 168.344 188.039L167.252 188.585Z" fill="#41474C"/>
<path fill-rule="evenodd" clip-rule="evenodd" d="M20.291 204.437H127.905C131.73 204.437 144.623 249.72 155.221 278.778H48.1534L20.291 204.437Z" fill="white"/>
<path fill-rule="evenodd" clip-rule="evenodd" d="M22.4763 210.45H121.896C125.174 210.45 137.291 251.884 147.027 278.778H48.1534L22.4763 210.45Z" fill="#FAC32D"/>
<path d="M85.3036 250.9C90.4329 250.9 94.591 246.985 94.591 242.154C94.591 237.324 90.4329 233.408 85.3036 233.408C80.1743 233.408 76.0161 237.324 76.0161 242.154C76.0161 246.985 80.1743 250.9 85.3036 250.9Z" fill="#111A1B"/>
<path fill-rule="evenodd" clip-rule="evenodd" d="M166.159 154.695C173.807 153.601 173.807 153.601 179.817 151.961C172.431 168.83 164.432 178.779 139.924 188.039C149.758 202.797 159.603 242.701 172.715 278.778H163.974L138.286 204.437C135.554 197.331 127.359 191.318 118.629 190.772C149.988 177.478 158.882 169.027 166.159 154.695Z" fill="white"/>
<path fill-rule="evenodd" clip-rule="evenodd" d="M268.321 187.492C285.978 171.214 303.832 170 320.221 178.746C320.44 187.995 320.112 193.111 317.49 201.704C300.008 195.145 290.239 195.025 271.599 206.077C270.506 204.984 269.512 194.839 268.321 187.492Z" fill="#C1C3C4"/>
<path fill-rule="evenodd" clip-rule="evenodd" d="M262.858 144.855C261.765 153.055 262.311 160.161 263.95 165.627C281.979 149.217 295.091 148.682 320.768 157.428C321.642 150.114 323.499 143.762 325.685 137.749C307.656 126.806 279.247 126.27 262.858 144.855Z" fill="#C1C3C4"/>
</svg>
