<svg width="115" height="42" viewBox="0 0 115 42" fill="none" xmlns="http://www.w3.org/2000/svg">
<path d="M3.99814 38.3188C4.00521 38.3262 4.01235 38.3335 4.01956 38.3407C5.14531 39.4664 6.66141 39.932 8.34422 39.932C10.0641 39.932 11.6255 39.4801 12.7392 38.3179C12.7463 38.3105 12.7532 38.3031 12.7601 38.2956C13.8244 37.1388 14.2602 35.6113 14.2602 33.92V25.964H25.2282V33.92C25.2282 35.6113 25.6641 37.1388 26.7283 38.2956C26.7424 38.3109 26.7568 38.326 26.7716 38.3407C27.9033 39.4725 29.4406 39.932 31.1442 39.932C32.8227 39.932 34.3404 39.468 35.4423 38.3188C36.5513 37.1636 37.0122 35.6275 37.0122 33.92V8.24003C37.0122 6.52107 36.5614 4.96723 35.4321 3.83065C34.3311 2.68918 32.8175 2.22803 31.1442 2.22803C29.4406 2.22803 27.9033 2.68759 26.7716 3.81937C26.764 3.82689 26.7566 3.83449 26.7492 3.84217C25.6571 4.98181 25.2282 6.53159 25.2282 8.24003V15.716H14.2602V8.24003C14.2602 6.52106 13.8094 4.96721 12.6801 3.83063C11.573 2.68297 10.0378 2.22803 8.34422 2.22803C6.66141 2.22803 5.14531 2.69362 4.01956 3.81937L4.01956 3.81937C2.88199 4.95694 2.42822 6.51537 2.42822 8.24003V33.92C2.42822 35.6275 2.88913 37.1636 3.99814 38.3188ZM52.029 39.0366L52.0508 39.0438C54.1183 39.7096 56.4547 40.028 59.0386 40.028C62.4619 40.028 65.4525 39.4583 67.95 38.2453L67.9654 38.2377C70.4881 36.9763 72.403 35.083 73.6703 32.5867C74.9586 30.0799 75.5626 27.0621 75.5626 23.6V8.19203C75.5626 6.49461 75.1387 4.94646 74.0306 3.83078C72.9296 2.68922 71.4159 2.22803 69.7426 2.22803C68.0598 2.22803 66.5437 2.69362 65.4179 3.81937C64.3014 4.93589 63.8746 6.48881 63.8746 8.19203V23.696C63.8746 25.9696 63.369 27.41 62.6119 28.2783C61.8746 29.1241 60.7645 29.636 59.0386 29.636C57.2723 29.636 56.1501 29.119 55.4173 28.2783C54.6602 27.41 54.1546 25.9696 54.1546 23.696V8.19203C54.1546 6.48356 53.7086 4.93149 52.5635 3.81924C51.4572 2.67996 49.9266 2.22803 48.2386 2.22803C46.5613 2.22803 45.0497 2.69056 43.9251 3.80827C42.7715 4.92128 42.3226 6.47794 42.3226 8.19203V23.6C42.3226 26.1907 42.6587 28.5348 43.362 30.6096C43.3653 30.6193 43.3687 30.629 43.3722 30.6387C44.1131 32.685 45.2052 34.4362 46.6634 35.858L46.6768 35.8709C48.1618 37.2834 49.9559 38.3339 52.029 39.0366ZM110.28 21.8902C109.715 21.2398 109.068 20.6847 108.347 20.2203C108.802 19.8337 109.221 19.4023 109.601 18.9256C110.988 17.2264 111.661 15.189 111.661 12.896C111.661 10.8681 111.14 9.02995 110.056 7.44209C108.969 5.85118 107.407 4.67646 105.462 3.88123C103.532 3.04671 101.258 2.66003 98.6889 2.66003H86.9769C85.2105 2.66003 83.6247 3.13489 82.4602 4.29937C81.3226 5.43694 80.8689 6.99537 80.8689 8.72003V33.44C80.8689 35.1689 81.3242 36.7258 82.4388 37.8868C82.4529 37.9016 82.4673 37.916 82.4821 37.9301C83.6487 39.0501 85.2264 39.5 86.9769 39.5H99.1689C103.069 39.5 106.336 38.601 108.796 36.6256L108.798 36.6239C111.327 34.5859 112.573 31.7879 112.573 28.4C112.573 25.8594 111.839 23.6477 110.28 21.8902ZM100.566 26.1485C100.574 26.1551 100.582 26.1616 100.59 26.1681C100.903 26.4162 101.173 26.8493 101.173 27.776C101.173 28.6968 100.905 29.1672 100.563 29.4534C100.229 29.7285 99.4741 30.02 97.9688 30.02H92.3168V25.58H97.9688C99.4775 25.58 100.232 25.8729 100.566 26.1485ZM99.7088 15.536C99.7006 15.5422 99.6925 15.5484 99.6844 15.5548C99.3428 15.8221 98.5854 16.1 97.1049 16.1H92.3168V12.14H97.1049C98.5854 12.14 99.3428 12.418 99.6844 12.6853C99.7032 12.7 99.7223 12.7143 99.7418 12.7281C100.011 12.9185 100.261 13.2581 100.261 14.096C100.261 14.9306 100.011 15.3096 99.7088 15.536Z" fill="#FDD200" stroke="white" stroke-width="3" stroke-linejoin="round"/>
</svg>
