<svg width="253" height="42" viewBox="0 0 253 42" fill="none" xmlns="http://www.w3.org/2000/svg">
<mask id="path-1-outside-1_215_11331" maskUnits="userSpaceOnUse" x="0.736816" y="0.631958" width="252" height="41" fill="black">
<rect fill="white" x="0.736816" y="0.631958" width="252" height="41"/>
<path d="M7.48082 38.432C6.26482 38.432 5.33682 38.096 4.69682 37.424C4.05682 36.752 3.73682 35.808 3.73682 34.592V7.95196C3.73682 6.70396 4.05682 5.75996 4.69682 5.11996C5.36882 4.47996 6.31282 4.15996 7.52882 4.15996H19.1928C22.9688 4.15996 25.8808 5.07196 27.9288 6.89596C29.9768 8.71996 31.0008 11.264 31.0008 14.528C31.0008 16.64 30.5368 18.464 29.6088 20C28.6808 21.536 27.3368 22.72 25.5768 23.552C23.8488 24.384 21.7208 24.8 19.1928 24.8L19.5768 23.984H21.5448C22.8888 23.984 24.0568 24.32 25.0488 24.992C26.0728 25.632 26.9528 26.624 27.6888 27.968L30.6648 33.488C31.1128 34.288 31.3208 35.072 31.2888 35.84C31.2568 36.608 30.9688 37.232 30.4248 37.712C29.8808 38.192 29.0808 38.432 28.0248 38.432C26.9688 38.432 26.1048 38.208 25.4328 37.76C24.7928 37.312 24.2168 36.624 23.7048 35.696L19.0968 27.2C18.6168 26.304 18.0248 25.696 17.3208 25.376C16.6488 25.056 15.8168 24.896 14.8248 24.896H11.1768V34.592C11.1768 35.808 10.8568 36.752 10.2168 37.424C9.60882 38.096 8.69682 38.432 7.48082 38.432ZM11.1768 19.52H17.8488C19.8328 19.52 21.3208 19.12 22.3128 18.32C23.3368 17.52 23.8488 16.32 23.8488 14.72C23.8488 13.152 23.3368 11.968 22.3128 11.168C21.3208 10.368 19.8328 9.96796 17.8488 9.96796H11.1768V19.52Z"/>
<path d="M38.9024 38.432C38.0064 38.432 37.2704 38.224 36.6944 37.808C36.1504 37.392 35.7984 36.832 35.6384 36.128C35.5104 35.424 35.6544 34.64 36.0704 33.776L48.3584 6.84796C48.8704 5.75996 49.4784 4.97596 50.1824 4.49596C50.8864 3.98396 51.7024 3.72796 52.6304 3.72796C53.5584 3.72796 54.3744 3.98396 55.0784 4.49596C55.7824 4.97596 56.3744 5.75996 56.8544 6.84796L69.2384 33.776C69.6544 34.64 69.7984 35.44 69.6704 36.176C69.5744 36.88 69.2544 37.44 68.7104 37.856C68.1664 38.24 67.4624 38.432 66.5984 38.432C65.5104 38.432 64.6624 38.176 64.0544 37.664C63.4784 37.152 62.9664 36.352 62.5184 35.264L59.6384 28.592L62.6144 30.656H42.5984L45.5744 28.592L42.7424 35.264C42.2624 36.384 41.7504 37.2 41.2064 37.712C40.6944 38.192 39.9264 38.432 38.9024 38.432ZM52.5344 12.08L46.3904 26.72L45.0944 24.848H60.1184L58.8224 26.72L52.6304 12.08H52.5344Z"/>
<path d="M91.1422 38.528C87.4942 38.528 84.3742 37.808 81.7822 36.368C79.1902 34.928 77.1902 32.912 75.7822 30.32C74.4062 27.696 73.7182 24.608 73.7182 21.056C73.7182 18.4 74.1022 16.016 74.8702 13.904C75.6702 11.76 76.8222 9.93596 78.3262 8.43196C79.8302 6.89596 81.6542 5.71196 83.7982 4.87996C85.9742 4.04796 88.4222 3.63196 91.1422 3.63196C92.7422 3.63196 94.3582 3.83996 95.9902 4.25596C97.6542 4.63996 99.0942 5.19996 100.31 5.93596C101.11 6.38396 101.654 6.94396 101.942 7.61596C102.23 8.28796 102.31 8.95996 102.182 9.63196C102.086 10.304 101.814 10.88 101.366 11.36C100.95 11.84 100.422 12.144 99.7822 12.272C99.1422 12.4 98.4222 12.256 97.6222 11.84C96.6622 11.264 95.6542 10.848 94.5982 10.592C93.5422 10.336 92.4702 10.208 91.3822 10.208C89.2382 10.208 87.4302 10.64 85.9582 11.504C84.5182 12.336 83.4302 13.552 82.6942 15.152C81.9582 16.752 81.5902 18.72 81.5902 21.056C81.5902 23.36 81.9582 25.328 82.6942 26.96C83.4302 28.592 84.5182 29.84 85.9582 30.704C87.4302 31.536 89.2382 31.952 91.3822 31.952C92.4062 31.952 93.4462 31.824 94.5022 31.568C95.5902 31.312 96.6302 30.912 97.6222 30.368C98.4542 29.952 99.1902 29.808 99.8302 29.936C100.502 30.032 101.046 30.32 101.462 30.8C101.91 31.248 102.182 31.792 102.278 32.432C102.406 33.072 102.342 33.712 102.086 34.352C101.83 34.992 101.35 35.536 100.646 35.984C99.4622 36.784 98.0062 37.408 96.2782 37.856C94.5502 38.304 92.8382 38.528 91.1422 38.528Z"/>
<path d="M124.27 38.528C120.622 38.528 117.502 37.808 114.91 36.368C112.318 34.928 110.318 32.912 108.91 30.32C107.534 27.696 106.846 24.608 106.846 21.056C106.846 18.4 107.23 16.016 107.998 13.904C108.798 11.76 109.95 9.93596 111.454 8.43196C112.958 6.89596 114.782 5.71196 116.926 4.87996C119.102 4.04796 121.55 3.63196 124.27 3.63196C125.87 3.63196 127.486 3.83996 129.118 4.25596C130.782 4.63996 132.222 5.19996 133.438 5.93596C134.238 6.38396 134.782 6.94396 135.07 7.61596C135.358 8.28796 135.438 8.95996 135.31 9.63196C135.214 10.304 134.942 10.88 134.494 11.36C134.078 11.84 133.55 12.144 132.91 12.272C132.27 12.4 131.55 12.256 130.75 11.84C129.79 11.264 128.782 10.848 127.726 10.592C126.67 10.336 125.598 10.208 124.51 10.208C122.366 10.208 120.558 10.64 119.086 11.504C117.646 12.336 116.558 13.552 115.822 15.152C115.086 16.752 114.718 18.72 114.718 21.056C114.718 23.36 115.086 25.328 115.822 26.96C116.558 28.592 117.646 29.84 119.086 30.704C120.558 31.536 122.366 31.952 124.51 31.952C125.534 31.952 126.574 31.824 127.63 31.568C128.718 31.312 129.758 30.912 130.75 30.368C131.582 29.952 132.318 29.808 132.958 29.936C133.63 30.032 134.174 30.32 134.59 30.8C135.038 31.248 135.31 31.792 135.406 32.432C135.534 33.072 135.47 33.712 135.214 34.352C134.958 34.992 134.478 35.536 133.774 35.984C132.59 36.784 131.134 37.408 129.406 37.856C127.678 38.304 125.966 38.528 124.27 38.528Z"/>
<path d="M156.677 38.528C153.349 38.528 150.421 37.808 147.893 36.368C145.397 34.896 143.445 32.848 142.037 30.224C140.661 27.6 139.973 24.544 139.973 21.056C139.973 18.4 140.357 16.016 141.125 13.904C141.925 11.76 143.061 9.93596 144.533 8.43196C146.005 6.89596 147.765 5.71196 149.813 4.87996C151.893 4.04796 154.181 3.63196 156.677 3.63196C160.069 3.63196 163.013 4.35196 165.509 5.79196C168.005 7.23196 169.941 9.26396 171.317 11.888C172.725 14.48 173.429 17.52 173.429 21.008C173.429 23.664 173.029 26.064 172.229 28.208C171.429 30.352 170.293 32.192 168.821 33.728C167.349 35.264 165.589 36.448 163.541 37.28C161.493 38.112 159.205 38.528 156.677 38.528ZM156.677 32.192C158.565 32.192 160.165 31.76 161.477 30.896C162.821 30 163.845 28.72 164.549 27.056C165.285 25.36 165.653 23.36 165.653 21.056C165.653 17.536 164.869 14.816 163.301 12.896C161.733 10.944 159.525 9.96796 156.677 9.96796C154.821 9.96796 153.221 10.4 151.877 11.264C150.533 12.128 149.509 13.392 148.805 15.056C148.101 16.72 147.749 18.72 147.749 21.056C147.749 24.544 148.533 27.28 150.101 29.264C151.669 31.216 153.861 32.192 156.677 32.192Z"/>
<path d="M196.32 38.528C192.992 38.528 190.064 37.808 187.536 36.368C185.04 34.896 183.088 32.848 181.68 30.224C180.304 27.6 179.616 24.544 179.616 21.056C179.616 18.4 180 16.016 180.768 13.904C181.568 11.76 182.704 9.93596 184.176 8.43196C185.648 6.89596 187.408 5.71196 189.456 4.87996C191.536 4.04796 193.824 3.63196 196.32 3.63196C199.712 3.63196 202.656 4.35196 205.152 5.79196C207.648 7.23196 209.584 9.26396 210.96 11.888C212.368 14.48 213.072 17.52 213.072 21.008C213.072 23.664 212.672 26.064 211.872 28.208C211.072 30.352 209.936 32.192 208.464 33.728C206.992 35.264 205.232 36.448 203.184 37.28C201.136 38.112 198.848 38.528 196.32 38.528ZM196.32 32.192C198.208 32.192 199.808 31.76 201.12 30.896C202.464 30 203.488 28.72 204.192 27.056C204.928 25.36 205.296 23.36 205.296 21.056C205.296 17.536 204.512 14.816 202.944 12.896C201.376 10.944 199.168 9.96796 196.32 9.96796C194.464 9.96796 192.864 10.4 191.52 11.264C190.176 12.128 189.152 13.392 188.448 15.056C187.744 16.72 187.392 18.72 187.392 21.056C187.392 24.544 188.176 27.28 189.744 29.264C191.312 31.216 193.504 32.192 196.32 32.192Z"/>
<path d="M223.723 38.432C222.603 38.432 221.739 38.128 221.131 37.52C220.555 36.88 220.267 35.984 220.267 34.832V7.47196C220.267 6.25596 220.555 5.32796 221.131 4.68796C221.739 4.04796 222.539 3.72796 223.531 3.72796C224.395 3.72796 225.051 3.90396 225.499 4.25596C225.979 4.57596 226.523 5.11996 227.131 5.88796L243.979 27.344H242.683V7.27996C242.683 6.15996 242.971 5.29596 243.547 4.68796C244.155 4.04796 245.019 3.72796 246.139 3.72796C247.259 3.72796 248.107 4.04796 248.683 4.68796C249.291 5.29596 249.595 6.15996 249.595 7.27996V34.976C249.595 36.032 249.323 36.88 248.779 37.52C248.235 38.128 247.499 38.432 246.571 38.432C245.675 38.432 244.955 38.256 244.411 37.904C243.899 37.552 243.339 36.992 242.731 36.224L225.931 14.768H227.179V34.832C227.179 35.984 226.891 36.88 226.315 37.52C225.739 38.128 224.875 38.432 223.723 38.432Z"/>
</mask>
<path d="M7.48082 38.432C6.26482 38.432 5.33682 38.096 4.69682 37.424C4.05682 36.752 3.73682 35.808 3.73682 34.592V7.95196C3.73682 6.70396 4.05682 5.75996 4.69682 5.11996C5.36882 4.47996 6.31282 4.15996 7.52882 4.15996H19.1928C22.9688 4.15996 25.8808 5.07196 27.9288 6.89596C29.9768 8.71996 31.0008 11.264 31.0008 14.528C31.0008 16.64 30.5368 18.464 29.6088 20C28.6808 21.536 27.3368 22.72 25.5768 23.552C23.8488 24.384 21.7208 24.8 19.1928 24.8L19.5768 23.984H21.5448C22.8888 23.984 24.0568 24.32 25.0488 24.992C26.0728 25.632 26.9528 26.624 27.6888 27.968L30.6648 33.488C31.1128 34.288 31.3208 35.072 31.2888 35.84C31.2568 36.608 30.9688 37.232 30.4248 37.712C29.8808 38.192 29.0808 38.432 28.0248 38.432C26.9688 38.432 26.1048 38.208 25.4328 37.76C24.7928 37.312 24.2168 36.624 23.7048 35.696L19.0968 27.2C18.6168 26.304 18.0248 25.696 17.3208 25.376C16.6488 25.056 15.8168 24.896 14.8248 24.896H11.1768V34.592C11.1768 35.808 10.8568 36.752 10.2168 37.424C9.60882 38.096 8.69682 38.432 7.48082 38.432ZM11.1768 19.52H17.8488C19.8328 19.52 21.3208 19.12 22.3128 18.32C23.3368 17.52 23.8488 16.32 23.8488 14.72C23.8488 13.152 23.3368 11.968 22.3128 11.168C21.3208 10.368 19.8328 9.96796 17.8488 9.96796H11.1768V19.52Z" fill="#00000A"/>
<path d="M38.9024 38.432C38.0064 38.432 37.2704 38.224 36.6944 37.808C36.1504 37.392 35.7984 36.832 35.6384 36.128C35.5104 35.424 35.6544 34.64 36.0704 33.776L48.3584 6.84796C48.8704 5.75996 49.4784 4.97596 50.1824 4.49596C50.8864 3.98396 51.7024 3.72796 52.6304 3.72796C53.5584 3.72796 54.3744 3.98396 55.0784 4.49596C55.7824 4.97596 56.3744 5.75996 56.8544 6.84796L69.2384 33.776C69.6544 34.64 69.7984 35.44 69.6704 36.176C69.5744 36.88 69.2544 37.44 68.7104 37.856C68.1664 38.24 67.4624 38.432 66.5984 38.432C65.5104 38.432 64.6624 38.176 64.0544 37.664C63.4784 37.152 62.9664 36.352 62.5184 35.264L59.6384 28.592L62.6144 30.656H42.5984L45.5744 28.592L42.7424 35.264C42.2624 36.384 41.7504 37.2 41.2064 37.712C40.6944 38.192 39.9264 38.432 38.9024 38.432ZM52.5344 12.08L46.3904 26.72L45.0944 24.848H60.1184L58.8224 26.72L52.6304 12.08H52.5344Z" fill="#00000A"/>
<path d="M91.1422 38.528C87.4942 38.528 84.3742 37.808 81.7822 36.368C79.1902 34.928 77.1902 32.912 75.7822 30.32C74.4062 27.696 73.7182 24.608 73.7182 21.056C73.7182 18.4 74.1022 16.016 74.8702 13.904C75.6702 11.76 76.8222 9.93596 78.3262 8.43196C79.8302 6.89596 81.6542 5.71196 83.7982 4.87996C85.9742 4.04796 88.4222 3.63196 91.1422 3.63196C92.7422 3.63196 94.3582 3.83996 95.9902 4.25596C97.6542 4.63996 99.0942 5.19996 100.31 5.93596C101.11 6.38396 101.654 6.94396 101.942 7.61596C102.23 8.28796 102.31 8.95996 102.182 9.63196C102.086 10.304 101.814 10.88 101.366 11.36C100.95 11.84 100.422 12.144 99.7822 12.272C99.1422 12.4 98.4222 12.256 97.6222 11.84C96.6622 11.264 95.6542 10.848 94.5982 10.592C93.5422 10.336 92.4702 10.208 91.3822 10.208C89.2382 10.208 87.4302 10.64 85.9582 11.504C84.5182 12.336 83.4302 13.552 82.6942 15.152C81.9582 16.752 81.5902 18.72 81.5902 21.056C81.5902 23.36 81.9582 25.328 82.6942 26.96C83.4302 28.592 84.5182 29.84 85.9582 30.704C87.4302 31.536 89.2382 31.952 91.3822 31.952C92.4062 31.952 93.4462 31.824 94.5022 31.568C95.5902 31.312 96.6302 30.912 97.6222 30.368C98.4542 29.952 99.1902 29.808 99.8302 29.936C100.502 30.032 101.046 30.32 101.462 30.8C101.91 31.248 102.182 31.792 102.278 32.432C102.406 33.072 102.342 33.712 102.086 34.352C101.83 34.992 101.35 35.536 100.646 35.984C99.4622 36.784 98.0062 37.408 96.2782 37.856C94.5502 38.304 92.8382 38.528 91.1422 38.528Z" fill="#00000A"/>
<path d="M124.27 38.528C120.622 38.528 117.502 37.808 114.91 36.368C112.318 34.928 110.318 32.912 108.91 30.32C107.534 27.696 106.846 24.608 106.846 21.056C106.846 18.4 107.23 16.016 107.998 13.904C108.798 11.76 109.95 9.93596 111.454 8.43196C112.958 6.89596 114.782 5.71196 116.926 4.87996C119.102 4.04796 121.55 3.63196 124.27 3.63196C125.87 3.63196 127.486 3.83996 129.118 4.25596C130.782 4.63996 132.222 5.19996 133.438 5.93596C134.238 6.38396 134.782 6.94396 135.07 7.61596C135.358 8.28796 135.438 8.95996 135.31 9.63196C135.214 10.304 134.942 10.88 134.494 11.36C134.078 11.84 133.55 12.144 132.91 12.272C132.27 12.4 131.55 12.256 130.75 11.84C129.79 11.264 128.782 10.848 127.726 10.592C126.67 10.336 125.598 10.208 124.51 10.208C122.366 10.208 120.558 10.64 119.086 11.504C117.646 12.336 116.558 13.552 115.822 15.152C115.086 16.752 114.718 18.72 114.718 21.056C114.718 23.36 115.086 25.328 115.822 26.96C116.558 28.592 117.646 29.84 119.086 30.704C120.558 31.536 122.366 31.952 124.51 31.952C125.534 31.952 126.574 31.824 127.63 31.568C128.718 31.312 129.758 30.912 130.75 30.368C131.582 29.952 132.318 29.808 132.958 29.936C133.63 30.032 134.174 30.32 134.59 30.8C135.038 31.248 135.31 31.792 135.406 32.432C135.534 33.072 135.47 33.712 135.214 34.352C134.958 34.992 134.478 35.536 133.774 35.984C132.59 36.784 131.134 37.408 129.406 37.856C127.678 38.304 125.966 38.528 124.27 38.528Z" fill="#00000A"/>
<path d="M156.677 38.528C153.349 38.528 150.421 37.808 147.893 36.368C145.397 34.896 143.445 32.848 142.037 30.224C140.661 27.6 139.973 24.544 139.973 21.056C139.973 18.4 140.357 16.016 141.125 13.904C141.925 11.76 143.061 9.93596 144.533 8.43196C146.005 6.89596 147.765 5.71196 149.813 4.87996C151.893 4.04796 154.181 3.63196 156.677 3.63196C160.069 3.63196 163.013 4.35196 165.509 5.79196C168.005 7.23196 169.941 9.26396 171.317 11.888C172.725 14.48 173.429 17.52 173.429 21.008C173.429 23.664 173.029 26.064 172.229 28.208C171.429 30.352 170.293 32.192 168.821 33.728C167.349 35.264 165.589 36.448 163.541 37.28C161.493 38.112 159.205 38.528 156.677 38.528ZM156.677 32.192C158.565 32.192 160.165 31.76 161.477 30.896C162.821 30 163.845 28.72 164.549 27.056C165.285 25.36 165.653 23.36 165.653 21.056C165.653 17.536 164.869 14.816 163.301 12.896C161.733 10.944 159.525 9.96796 156.677 9.96796C154.821 9.96796 153.221 10.4 151.877 11.264C150.533 12.128 149.509 13.392 148.805 15.056C148.101 16.72 147.749 18.72 147.749 21.056C147.749 24.544 148.533 27.28 150.101 29.264C151.669 31.216 153.861 32.192 156.677 32.192Z" fill="#00000A"/>
<path d="M196.32 38.528C192.992 38.528 190.064 37.808 187.536 36.368C185.04 34.896 183.088 32.848 181.68 30.224C180.304 27.6 179.616 24.544 179.616 21.056C179.616 18.4 180 16.016 180.768 13.904C181.568 11.76 182.704 9.93596 184.176 8.43196C185.648 6.89596 187.408 5.71196 189.456 4.87996C191.536 4.04796 193.824 3.63196 196.32 3.63196C199.712 3.63196 202.656 4.35196 205.152 5.79196C207.648 7.23196 209.584 9.26396 210.96 11.888C212.368 14.48 213.072 17.52 213.072 21.008C213.072 23.664 212.672 26.064 211.872 28.208C211.072 30.352 209.936 32.192 208.464 33.728C206.992 35.264 205.232 36.448 203.184 37.28C201.136 38.112 198.848 38.528 196.32 38.528ZM196.32 32.192C198.208 32.192 199.808 31.76 201.12 30.896C202.464 30 203.488 28.72 204.192 27.056C204.928 25.36 205.296 23.36 205.296 21.056C205.296 17.536 204.512 14.816 202.944 12.896C201.376 10.944 199.168 9.96796 196.32 9.96796C194.464 9.96796 192.864 10.4 191.52 11.264C190.176 12.128 189.152 13.392 188.448 15.056C187.744 16.72 187.392 18.72 187.392 21.056C187.392 24.544 188.176 27.28 189.744 29.264C191.312 31.216 193.504 32.192 196.32 32.192Z" fill="#00000A"/>
<path d="M223.723 38.432C222.603 38.432 221.739 38.128 221.131 37.52C220.555 36.88 220.267 35.984 220.267 34.832V7.47196C220.267 6.25596 220.555 5.32796 221.131 4.68796C221.739 4.04796 222.539 3.72796 223.531 3.72796C224.395 3.72796 225.051 3.90396 225.499 4.25596C225.979 4.57596 226.523 5.11996 227.131 5.88796L243.979 27.344H242.683V7.27996C242.683 6.15996 242.971 5.29596 243.547 4.68796C244.155 4.04796 245.019 3.72796 246.139 3.72796C247.259 3.72796 248.107 4.04796 248.683 4.68796C249.291 5.29596 249.595 6.15996 249.595 7.27996V34.976C249.595 36.032 249.323 36.88 248.779 37.52C248.235 38.128 247.499 38.432 246.571 38.432C245.675 38.432 244.955 38.256 244.411 37.904C243.899 37.552 243.339 36.992 242.731 36.224L225.931 14.768H227.179V34.832C227.179 35.984 226.891 36.88 226.315 37.52C225.739 38.128 224.875 38.432 223.723 38.432Z" fill="#00000A"/>
<path d="M7.48082 38.432C6.26482 38.432 5.33682 38.096 4.69682 37.424C4.05682 36.752 3.73682 35.808 3.73682 34.592V7.95196C3.73682 6.70396 4.05682 5.75996 4.69682 5.11996C5.36882 4.47996 6.31282 4.15996 7.52882 4.15996H19.1928C22.9688 4.15996 25.8808 5.07196 27.9288 6.89596C29.9768 8.71996 31.0008 11.264 31.0008 14.528C31.0008 16.64 30.5368 18.464 29.6088 20C28.6808 21.536 27.3368 22.72 25.5768 23.552C23.8488 24.384 21.7208 24.8 19.1928 24.8L19.5768 23.984H21.5448C22.8888 23.984 24.0568 24.32 25.0488 24.992C26.0728 25.632 26.9528 26.624 27.6888 27.968L30.6648 33.488C31.1128 34.288 31.3208 35.072 31.2888 35.84C31.2568 36.608 30.9688 37.232 30.4248 37.712C29.8808 38.192 29.0808 38.432 28.0248 38.432C26.9688 38.432 26.1048 38.208 25.4328 37.76C24.7928 37.312 24.2168 36.624 23.7048 35.696L19.0968 27.2C18.6168 26.304 18.0248 25.696 17.3208 25.376C16.6488 25.056 15.8168 24.896 14.8248 24.896H11.1768V34.592C11.1768 35.808 10.8568 36.752 10.2168 37.424C9.60882 38.096 8.69682 38.432 7.48082 38.432ZM11.1768 19.52H17.8488C19.8328 19.52 21.3208 19.12 22.3128 18.32C23.3368 17.52 23.8488 16.32 23.8488 14.72C23.8488 13.152 23.3368 11.968 22.3128 11.168C21.3208 10.368 19.8328 9.96796 17.8488 9.96796H11.1768V19.52Z" stroke="white" stroke-width="6" stroke-linejoin="round" mask="url(#path-1-outside-1_215_11331)"/>
<path d="M38.9024 38.432C38.0064 38.432 37.2704 38.224 36.6944 37.808C36.1504 37.392 35.7984 36.832 35.6384 36.128C35.5104 35.424 35.6544 34.64 36.0704 33.776L48.3584 6.84796C48.8704 5.75996 49.4784 4.97596 50.1824 4.49596C50.8864 3.98396 51.7024 3.72796 52.6304 3.72796C53.5584 3.72796 54.3744 3.98396 55.0784 4.49596C55.7824 4.97596 56.3744 5.75996 56.8544 6.84796L69.2384 33.776C69.6544 34.64 69.7984 35.44 69.6704 36.176C69.5744 36.88 69.2544 37.44 68.7104 37.856C68.1664 38.24 67.4624 38.432 66.5984 38.432C65.5104 38.432 64.6624 38.176 64.0544 37.664C63.4784 37.152 62.9664 36.352 62.5184 35.264L59.6384 28.592L62.6144 30.656H42.5984L45.5744 28.592L42.7424 35.264C42.2624 36.384 41.7504 37.2 41.2064 37.712C40.6944 38.192 39.9264 38.432 38.9024 38.432ZM52.5344 12.08L46.3904 26.72L45.0944 24.848H60.1184L58.8224 26.72L52.6304 12.08H52.5344Z" stroke="white" stroke-width="6" stroke-linejoin="round" mask="url(#path-1-outside-1_215_11331)"/>
<path d="M91.1422 38.528C87.4942 38.528 84.3742 37.808 81.7822 36.368C79.1902 34.928 77.1902 32.912 75.7822 30.32C74.4062 27.696 73.7182 24.608 73.7182 21.056C73.7182 18.4 74.1022 16.016 74.8702 13.904C75.6702 11.76 76.8222 9.93596 78.3262 8.43196C79.8302 6.89596 81.6542 5.71196 83.7982 4.87996C85.9742 4.04796 88.4222 3.63196 91.1422 3.63196C92.7422 3.63196 94.3582 3.83996 95.9902 4.25596C97.6542 4.63996 99.0942 5.19996 100.31 5.93596C101.11 6.38396 101.654 6.94396 101.942 7.61596C102.23 8.28796 102.31 8.95996 102.182 9.63196C102.086 10.304 101.814 10.88 101.366 11.36C100.95 11.84 100.422 12.144 99.7822 12.272C99.1422 12.4 98.4222 12.256 97.6222 11.84C96.6622 11.264 95.6542 10.848 94.5982 10.592C93.5422 10.336 92.4702 10.208 91.3822 10.208C89.2382 10.208 87.4302 10.64 85.9582 11.504C84.5182 12.336 83.4302 13.552 82.6942 15.152C81.9582 16.752 81.5902 18.72 81.5902 21.056C81.5902 23.36 81.9582 25.328 82.6942 26.96C83.4302 28.592 84.5182 29.84 85.9582 30.704C87.4302 31.536 89.2382 31.952 91.3822 31.952C92.4062 31.952 93.4462 31.824 94.5022 31.568C95.5902 31.312 96.6302 30.912 97.6222 30.368C98.4542 29.952 99.1902 29.808 99.8302 29.936C100.502 30.032 101.046 30.32 101.462 30.8C101.91 31.248 102.182 31.792 102.278 32.432C102.406 33.072 102.342 33.712 102.086 34.352C101.83 34.992 101.35 35.536 100.646 35.984C99.4622 36.784 98.0062 37.408 96.2782 37.856C94.5502 38.304 92.8382 38.528 91.1422 38.528Z" stroke="white" stroke-width="6" stroke-linejoin="round" mask="url(#path-1-outside-1_215_11331)"/>
<path d="M124.27 38.528C120.622 38.528 117.502 37.808 114.91 36.368C112.318 34.928 110.318 32.912 108.91 30.32C107.534 27.696 106.846 24.608 106.846 21.056C106.846 18.4 107.23 16.016 107.998 13.904C108.798 11.76 109.95 9.93596 111.454 8.43196C112.958 6.89596 114.782 5.71196 116.926 4.87996C119.102 4.04796 121.55 3.63196 124.27 3.63196C125.87 3.63196 127.486 3.83996 129.118 4.25596C130.782 4.63996 132.222 5.19996 133.438 5.93596C134.238 6.38396 134.782 6.94396 135.07 7.61596C135.358 8.28796 135.438 8.95996 135.31 9.63196C135.214 10.304 134.942 10.88 134.494 11.36C134.078 11.84 133.55 12.144 132.91 12.272C132.27 12.4 131.55 12.256 130.75 11.84C129.79 11.264 128.782 10.848 127.726 10.592C126.67 10.336 125.598 10.208 124.51 10.208C122.366 10.208 120.558 10.64 119.086 11.504C117.646 12.336 116.558 13.552 115.822 15.152C115.086 16.752 114.718 18.72 114.718 21.056C114.718 23.36 115.086 25.328 115.822 26.96C116.558 28.592 117.646 29.84 119.086 30.704C120.558 31.536 122.366 31.952 124.51 31.952C125.534 31.952 126.574 31.824 127.63 31.568C128.718 31.312 129.758 30.912 130.75 30.368C131.582 29.952 132.318 29.808 132.958 29.936C133.63 30.032 134.174 30.32 134.59 30.8C135.038 31.248 135.31 31.792 135.406 32.432C135.534 33.072 135.47 33.712 135.214 34.352C134.958 34.992 134.478 35.536 133.774 35.984C132.59 36.784 131.134 37.408 129.406 37.856C127.678 38.304 125.966 38.528 124.27 38.528Z" stroke="white" stroke-width="6" stroke-linejoin="round" mask="url(#path-1-outside-1_215_11331)"/>
<path d="M156.677 38.528C153.349 38.528 150.421 37.808 147.893 36.368C145.397 34.896 143.445 32.848 142.037 30.224C140.661 27.6 139.973 24.544 139.973 21.056C139.973 18.4 140.357 16.016 141.125 13.904C141.925 11.76 143.061 9.93596 144.533 8.43196C146.005 6.89596 147.765 5.71196 149.813 4.87996C151.893 4.04796 154.181 3.63196 156.677 3.63196C160.069 3.63196 163.013 4.35196 165.509 5.79196C168.005 7.23196 169.941 9.26396 171.317 11.888C172.725 14.48 173.429 17.52 173.429 21.008C173.429 23.664 173.029 26.064 172.229 28.208C171.429 30.352 170.293 32.192 168.821 33.728C167.349 35.264 165.589 36.448 163.541 37.28C161.493 38.112 159.205 38.528 156.677 38.528ZM156.677 32.192C158.565 32.192 160.165 31.76 161.477 30.896C162.821 30 163.845 28.72 164.549 27.056C165.285 25.36 165.653 23.36 165.653 21.056C165.653 17.536 164.869 14.816 163.301 12.896C161.733 10.944 159.525 9.96796 156.677 9.96796C154.821 9.96796 153.221 10.4 151.877 11.264C150.533 12.128 149.509 13.392 148.805 15.056C148.101 16.72 147.749 18.72 147.749 21.056C147.749 24.544 148.533 27.28 150.101 29.264C151.669 31.216 153.861 32.192 156.677 32.192Z" stroke="white" stroke-width="6" stroke-linejoin="round" mask="url(#path-1-outside-1_215_11331)"/>
<path d="M196.32 38.528C192.992 38.528 190.064 37.808 187.536 36.368C185.04 34.896 183.088 32.848 181.68 30.224C180.304 27.6 179.616 24.544 179.616 21.056C179.616 18.4 180 16.016 180.768 13.904C181.568 11.76 182.704 9.93596 184.176 8.43196C185.648 6.89596 187.408 5.71196 189.456 4.87996C191.536 4.04796 193.824 3.63196 196.32 3.63196C199.712 3.63196 202.656 4.35196 205.152 5.79196C207.648 7.23196 209.584 9.26396 210.96 11.888C212.368 14.48 213.072 17.52 213.072 21.008C213.072 23.664 212.672 26.064 211.872 28.208C211.072 30.352 209.936 32.192 208.464 33.728C206.992 35.264 205.232 36.448 203.184 37.28C201.136 38.112 198.848 38.528 196.32 38.528ZM196.32 32.192C198.208 32.192 199.808 31.76 201.12 30.896C202.464 30 203.488 28.72 204.192 27.056C204.928 25.36 205.296 23.36 205.296 21.056C205.296 17.536 204.512 14.816 202.944 12.896C201.376 10.944 199.168 9.96796 196.32 9.96796C194.464 9.96796 192.864 10.4 191.52 11.264C190.176 12.128 189.152 13.392 188.448 15.056C187.744 16.72 187.392 18.72 187.392 21.056C187.392 24.544 188.176 27.28 189.744 29.264C191.312 31.216 193.504 32.192 196.32 32.192Z" stroke="white" stroke-width="6" stroke-linejoin="round" mask="url(#path-1-outside-1_215_11331)"/>
<path d="M223.723 38.432C222.603 38.432 221.739 38.128 221.131 37.52C220.555 36.88 220.267 35.984 220.267 34.832V7.47196C220.267 6.25596 220.555 5.32796 221.131 4.68796C221.739 4.04796 222.539 3.72796 223.531 3.72796C224.395 3.72796 225.051 3.90396 225.499 4.25596C225.979 4.57596 226.523 5.11996 227.131 5.88796L243.979 27.344H242.683V7.27996C242.683 6.15996 242.971 5.29596 243.547 4.68796C244.155 4.04796 245.019 3.72796 246.139 3.72796C247.259 3.72796 248.107 4.04796 248.683 4.68796C249.291 5.29596 249.595 6.15996 249.595 7.27996V34.976C249.595 36.032 249.323 36.88 248.779 37.52C248.235 38.128 247.499 38.432 246.571 38.432C245.675 38.432 244.955 38.256 244.411 37.904C243.899 37.552 243.339 36.992 242.731 36.224L225.931 14.768H227.179V34.832C227.179 35.984 226.891 36.88 226.315 37.52C225.739 38.128 224.875 38.432 223.723 38.432Z" stroke="white" stroke-width="6" stroke-linejoin="round" mask="url(#path-1-outside-1_215_11331)"/>
</svg>
